<?xml version="1.0" encoding="utf-8"?>
<!-- Generator: Adobe Illustrator 17.0.0, SVG Export Plug-In . SVG Version: 6.00 Build 0)  -->
<!DOCTYPE svg PUBLIC "-//W3C//DTD SVG 1.1//EN" "http://www.w3.org/Graphics/SVG/1.1/DTD/svg11.dtd">
<svg version="1.1" id="Layer_3" xmlns="http://www.w3.org/2000/svg" xmlns:xlink="http://www.w3.org/1999/xlink" x="0px" y="0px"
	 width="129px" height="143.587px" viewBox="0 0 129 143.587" enable-background="new 0 0 129 143.587" xml:space="preserve">
<g>
	<path fill-rule="evenodd" clip-rule="evenodd" fill="#F1676B" d="M64.711,11.527c-33.347,0-60.388,27.035-60.388,60.388
		c0,26.681,17.303,49.316,41.297,57.302c3.018,0.559,4.126-1.31,4.126-2.905c0-1.439-0.056-6.197-0.082-11.243
		c-16.8,3.653-20.345-7.125-20.345-7.125c-2.747-6.979-6.705-8.836-6.705-8.836c-5.479-3.748,0.413-3.671,0.413-3.671
		c6.063,0.426,9.257,6.224,9.257,6.224c5.386,9.231,14.127,6.562,17.573,5.02c0.542-3.902,2.106-6.567,3.834-8.075
		c-13.413-1.526-27.514-6.705-27.514-29.844c0-6.593,2.359-11.98,6.223-16.209c-0.627-1.521-2.694-7.663,0.585-15.981
		c0,0,5.071-1.622,16.61,6.191c4.817-1.338,9.983-2.009,15.115-2.033c5.132,0.023,10.302,0.694,15.128,2.033
		c11.526-7.813,16.59-6.191,16.59-6.191c3.287,8.318,1.22,14.46,0.593,15.981c3.872,4.229,6.215,9.616,6.215,16.209
		c0,23.194-14.127,28.301-27.574,29.796c2.166,1.874,4.096,5.549,4.096,11.183c0,8.08-0.069,14.583-0.069,16.572
		c0,1.607,1.087,3.49,4.147,2.897c23.981-7.994,41.263-30.622,41.263-57.294C125.099,38.562,98.061,11.527,64.711,11.527z"/>
	<path fill="#F1676B" d="M27.195,98.23c-0.133,0.301-0.605,0.391-1.035,0.185c-0.439-0.197-0.684-0.606-0.542-0.907
		c0.13-0.309,0.602-0.395,1.04-0.188C27.097,97.517,27.347,97.93,27.195,98.23L27.195,98.23z M26.452,97.68"/>
	<path fill="#F1676B" d="M29.642,100.959c-0.288,0.267-0.852,0.143-1.233-0.279c-0.396-0.421-0.469-0.984-0.177-1.255
		c0.297-0.267,0.843-0.142,1.238,0.279C29.865,100.13,29.942,100.688,29.642,100.959L29.642,100.959z M29.065,100.341"/>
	<path fill="#F1676B" d="M32.022,104.437c-0.37,0.258-0.976,0.017-1.35-0.521c-0.37-0.537-0.37-1.182,0.009-1.439
		c0.374-0.258,0.971-0.025,1.35,0.507C32.4,103.529,32.4,104.174,32.022,104.437L32.022,104.437z M32.022,104.437"/>
	<path fill="#F1676B" d="M35.284,107.797c-0.331,0.365-1.036,0.267-1.552-0.231c-0.528-0.486-0.675-1.178-0.344-1.543
		c0.336-0.365,1.045-0.263,1.564,0.231C35.477,106.74,35.637,107.436,35.284,107.797L35.284,107.797z M35.284,107.797"/>
	<path fill="#F1676B" d="M39.784,109.748c-0.146,0.473-0.825,0.688-1.509,0.486c-0.684-0.207-1.13-0.761-0.992-1.238
		c0.142-0.477,0.824-0.7,1.513-0.485C39.478,108.717,39.926,109.267,39.784,109.748L39.784,109.748z M39.784,109.748"/>
	<path fill="#F1676B" d="M44.727,110.109c0.017,0.498-0.563,0.911-1.281,0.92c-0.722,0.017-1.307-0.387-1.314-0.877
		c0-0.503,0.567-0.911,1.289-0.924C44.138,109.215,44.727,109.615,44.727,110.109L44.727,110.109z M44.727,110.109"/>
	<path fill="#F1676B" d="M49.325,109.327c0.086,0.485-0.413,0.984-1.126,1.117c-0.701,0.129-1.35-0.172-1.439-0.653
		c-0.087-0.498,0.421-0.997,1.121-1.126C48.595,108.541,49.234,108.833,49.325,109.327L49.325,109.327z M49.325,109.327"/>
</g>
</svg>
