<?xml version="1.0" encoding="utf-8"?>
<!-- Generator: Adobe Illustrator 17.0.0, SVG Export Plug-In . SVG Version: 6.00 Build 0)  -->
<!DOCTYPE svg PUBLIC "-//W3C//DTD SVG 1.1//EN" "http://www.w3.org/Graphics/SVG/1.1/DTD/svg11.dtd">
<svg version="1.1" id="Layer_4" xmlns="http://www.w3.org/2000/svg" xmlns:xlink="http://www.w3.org/1999/xlink" x="0px" y="0px"
	 width="129px" height="143.587px" viewBox="0 0 129 143.587" enable-background="new 0 0 129 143.587" xml:space="preserve">
<g>
	<g>
		<g>
			<path fill="#F1676B" d="M99.308,23.105H16.331c-3.967,0-7.188,3.145-7.188,7.016v83.335c0,3.878,3.221,7.026,7.188,7.026h82.977
				c3.971,0,7.213-3.149,7.213-7.026V30.121C106.52,26.25,103.279,23.105,99.308,23.105z"/>
			<path fill="#FFFFFF" d="M23.573,59.614h14.449v46.47H23.573V59.614z M30.799,36.511c4.617,0,8.37,3.753,8.37,8.372
				c0,4.624-3.753,8.377-8.37,8.377c-4.63,0-8.372-3.753-8.372-8.377C22.427,40.264,26.169,36.511,30.799,36.511"/>
			<path fill="#FFFFFF" d="M47.081,59.614h13.856v6.347h0.197c1.928-3.652,6.641-7.505,13.667-7.505
				c14.615,0,17.314,9.622,17.314,22.14v25.489H77.69V83.487c0-5.392-0.106-12.324-7.507-12.324c-7.516,0-8.662,5.871-8.662,11.933
				v22.988H47.081V59.614z"/>
		</g>
	</g>
	<g>
		<polygon points="109.641,101.759 111.029,101.759 111.029,106.084 111.783,106.084 111.783,101.759 113.167,101.759 
			113.167,101.005 109.641,101.005 		"/>
		<polygon points="118.069,101.005 116.588,104.732 115.109,101.005 114.035,101.005 114.035,106.084 114.785,106.084 
			114.785,102.22 116.338,106.084 116.84,106.084 118.393,102.22 118.393,106.084 119.144,106.084 119.144,101.005 		"/>
	</g>
</g>
</svg>
