<?xml version="1.0" encoding="utf-8"?>
<!-- Generator: Adobe Illustrator 17.0.0, SVG Export Plug-In . SVG Version: 6.00 Build 0)  -->
<!DOCTYPE svg PUBLIC "-//W3C//DTD SVG 1.1//EN" "http://www.w3.org/Graphics/SVG/1.1/DTD/svg11.dtd">
<svg version="1.1" id="Layer_5" xmlns="http://www.w3.org/2000/svg" xmlns:xlink="http://www.w3.org/1999/xlink" x="0px" y="0px"
	 width="129px" height="143.587px" viewBox="0 0 129 143.587" enable-background="new 0 0 129 143.587" xml:space="preserve">
<g>
	<path fill="#F1676B" d="M14.649,35c-1.773,0-2.881,0.148-3.324,0.444c-0.444,0.295-0.517,0.628-0.222,0.997
		c0.296,0.37,1.035,0.998,2.216,1.884c0.591,0.444,1.035,0.813,1.33,1.108l50.089,38.121l50.089-37.899l1.108-1.108
		c1.182-0.886,1.958-1.515,2.327-1.884c0.369-0.369,0.332-0.739-0.11-1.108C117.708,35.185,116.6,35,114.827,35H14.649z M14.649,35"
		/>
	<path fill="#F1676B" d="M8,43.865v56.294c0,1.625,0.664,3.288,1.994,4.987s2.66,2.548,3.99,2.548h101.507
		c1.33,0,2.66-0.849,3.989-2.548c1.33-1.699,1.996-3.361,1.996-4.987V43.865l-56.738,43.44L8,43.865z M8,43.865"/>
</g>
</svg>
