<?xml version="1.0" encoding="utf-8"?>
<!-- Generator: Adobe Illustrator 17.0.0, SVG Export Plug-In . SVG Version: 6.00 Build 0)  -->
<!DOCTYPE svg PUBLIC "-//W3C//DTD SVG 1.1//EN" "http://www.w3.org/Graphics/SVG/1.1/DTD/svg11.dtd">
<svg version="1.1" id="Layer_1" xmlns="http://www.w3.org/2000/svg" xmlns:xlink="http://www.w3.org/1999/xlink" x="0px" y="0px"
	 width="129px" height="143.587px" viewBox="0 0 129 143.587" enable-background="new 0 0 129 143.587" xml:space="preserve">
<g id="Layer_1_1_" display="none">
	<rect x="-285.898" y="229.096" display="inline" width="530.973" height="275.986"/>
	<path display="inline" fill="#191717" d="M-133.29,60.537c-8.995,0-16.288,7.293-16.288,16.291c0,7.196,4.667,13.302,11.141,15.456
		c0.814,0.149,1.112-0.354,1.112-0.785c0-0.387-0.014-1.411-0.022-2.771c-4.531,0.984-5.487-2.184-5.487-2.184
		c-0.741-1.882-1.809-2.383-1.809-2.383c-1.479-1.011,0.112-0.99,0.112-0.99c1.635,0.115,2.495,1.679,2.495,1.679
		c1.453,2.489,3.812,1.771,4.741,1.354c0.148-1.053,0.569-1.771,1.034-2.178c-3.617-0.411-7.42-1.809-7.42-8.051
		c0-1.778,0.635-3.232,1.677-4.371c-0.168-0.412-0.727-2.068,0.16-4.311c0,0,1.368-0.438,4.479,1.67
		c1.299-0.361,2.693-0.542,4.078-0.548c1.383,0.006,2.777,0.187,4.078,0.548c3.11-2.108,4.475-1.67,4.475-1.67
		c0.889,2.243,0.33,3.899,0.162,4.311c1.044,1.139,1.674,2.593,1.674,4.371c0,6.258-3.809,7.635-7.438,8.038
		c0.585,0.503,1.106,1.497,1.106,3.017c0,2.178-0.02,3.935-0.02,4.469c0,0.436,0.293,0.942,1.12,0.783
		c6.467-2.158,11.13-8.26,11.13-15.454C-116.999,67.83-124.293,60.537-133.29,60.537z"/>
	<g display="inline">
		<path fill="#F1676B" d="M64.711,11.527c-33.347,0-60.388,27.035-60.388,60.388c0,26.681,17.303,49.316,41.297,57.302
			c3.018,0.559,4.126-1.31,4.126-2.905c0-1.439-0.056-6.197-0.082-11.243c-16.8,3.653-20.345-7.125-20.345-7.125
			c-2.747-6.979-6.705-8.836-6.705-8.836c-5.479-3.748,0.413-3.671,0.413-3.671c6.063,0.426,9.257,6.224,9.257,6.224
			c5.386,9.231,14.127,6.562,17.573,5.02c0.542-3.902,2.106-6.567,3.834-8.075c-13.413-1.526-27.514-6.705-27.514-29.844
			c0-6.593,2.359-11.98,6.223-16.209c-0.627-1.521-2.694-7.663,0.585-15.981c0,0,5.071-1.622,16.61,6.191
			c4.817-1.338,9.983-2.009,15.115-2.033c5.132,0.023,10.302,0.694,15.128,2.033c11.526-7.813,16.59-6.191,16.59-6.191
			c3.287,8.318,1.22,14.46,0.593,15.981c3.872,4.229,6.215,9.616,6.215,16.209c0,23.194-14.127,28.301-27.574,29.796
			c2.166,1.874,4.096,5.549,4.096,11.183c0,8.08-0.069,14.583-0.069,16.572c0,1.607,1.087,3.49,4.147,2.897
			c23.981-7.994,41.263-30.622,41.263-57.294C125.099,38.562,98.061,11.527,64.711,11.527z"/>
		<path fill="#F1676B" d="M27.195,98.23c-0.133,0.301-0.605,0.391-1.035,0.185c-0.439-0.197-0.684-0.606-0.542-0.907
			c0.13-0.309,0.602-0.395,1.04-0.188C27.097,97.517,27.347,97.93,27.195,98.23L27.195,98.23z"/>
		<path fill="#F1676B" d="M29.642,100.959c-0.288,0.267-0.852,0.143-1.233-0.279c-0.396-0.421-0.469-0.984-0.177-1.255
			c0.297-0.267,0.843-0.142,1.238,0.279C29.865,100.13,29.942,100.688,29.642,100.959L29.642,100.959z"/>
		<path fill="#F1676B" d="M32.022,104.437c-0.37,0.258-0.976,0.017-1.35-0.521c-0.37-0.537-0.37-1.182,0.009-1.439
			c0.374-0.258,0.971-0.025,1.35,0.507C32.4,103.529,32.4,104.174,32.022,104.437L32.022,104.437z"/>
		<path fill="#F1676B" d="M35.284,107.797c-0.331,0.365-1.036,0.267-1.552-0.231c-0.528-0.486-0.675-1.178-0.344-1.543
			c0.336-0.365,1.045-0.263,1.564,0.231C35.477,106.74,35.637,107.436,35.284,107.797L35.284,107.797z"/>
		<path fill="#F1676B" d="M39.784,109.748c-0.146,0.473-0.825,0.688-1.509,0.486c-0.684-0.207-1.13-0.761-0.992-1.238
			c0.142-0.477,0.824-0.7,1.513-0.485C39.478,108.717,39.926,109.267,39.784,109.748L39.784,109.748z"/>
		<path fill="#F1676B" d="M44.727,110.109c0.017,0.498-0.563,0.911-1.281,0.92c-0.722,0.017-1.307-0.387-1.314-0.877
			c0-0.503,0.567-0.911,1.289-0.924C44.138,109.215,44.727,109.615,44.727,110.109L44.727,110.109z"/>
		<path fill="#F1676B" d="M49.325,109.327c0.086,0.485-0.413,0.984-1.126,1.117c-0.701,0.129-1.35-0.172-1.439-0.653
			c-0.087-0.498,0.421-0.997,1.121-1.126C48.595,108.541,49.234,108.833,49.325,109.327L49.325,109.327z"/>
	</g>
	<g display="inline">
		<g>
			<line fill="none" stroke="#1981BC" stroke-linecap="round" stroke-miterlimit="10" x1="-61" y1="5.594" x2="-61" y2="6.094"/>
			
				<line fill="none" stroke="#1981BC" stroke-linecap="round" stroke-miterlimit="10" stroke-dasharray="0.9999,1.9999" x1="-61" y1="8.094" x2="-61" y2="142.087"/>
			
				<line fill="none" stroke="#1981BC" stroke-linecap="round" stroke-miterlimit="10" x1="-61" y1="143.087" x2="-61" y2="143.587"/>
		</g>
	</g>
	<g display="inline">
		<path fill="#0072BC" d="M-152.622,157.602c-0.38-0.276-0.866-0.414-1.458-0.414c-0.24,0-0.476,0.024-0.708,0.071
			c-0.232,0.049-0.438,0.129-0.618,0.24c-0.18,0.113-0.324,0.263-0.432,0.451s-0.162,0.422-0.162,0.701
			c0,0.264,0.078,0.479,0.234,0.643c0.156,0.164,0.364,0.298,0.624,0.401c0.26,0.104,0.554,0.19,0.882,0.259
			c0.328,0.067,0.662,0.142,1.002,0.221c0.34,0.08,0.674,0.175,1.002,0.283c0.328,0.107,0.622,0.254,0.882,0.438
			c0.26,0.184,0.468,0.416,0.624,0.695c0.156,0.281,0.234,0.633,0.234,1.057c0,0.456-0.102,0.846-0.306,1.17
			s-0.466,0.588-0.786,0.792c-0.32,0.204-0.678,0.353-1.074,0.444c-0.396,0.092-0.79,0.138-1.182,0.138
			c-0.48,0-0.934-0.06-1.362-0.18s-0.804-0.302-1.128-0.546s-0.58-0.557-0.768-0.936c-0.188-0.38-0.282-0.829-0.282-1.35h1.08
			c0,0.36,0.07,0.67,0.21,0.93c0.14,0.261,0.324,0.474,0.552,0.642s0.494,0.293,0.798,0.373s0.616,0.119,0.936,0.119
			c0.256,0,0.514-0.023,0.774-0.072c0.26-0.047,0.494-0.129,0.702-0.246c0.208-0.115,0.376-0.273,0.504-0.473
			c0.128-0.201,0.192-0.457,0.192-0.768c0-0.296-0.078-0.536-0.234-0.72c-0.156-0.184-0.364-0.334-0.624-0.45
			s-0.554-0.21-0.882-0.282c-0.328-0.072-0.662-0.146-1.002-0.223c-0.34-0.075-0.674-0.163-1.002-0.264
			c-0.328-0.1-0.623-0.231-0.882-0.395c-0.26-0.164-0.468-0.376-0.624-0.636c-0.156-0.26-0.234-0.586-0.234-0.979
			c0-0.432,0.088-0.806,0.264-1.122c0.176-0.316,0.41-0.575,0.702-0.78c0.292-0.203,0.624-0.355,0.996-0.455
			c0.372-0.101,0.754-0.15,1.146-0.15c0.44,0,0.848,0.053,1.224,0.156s0.706,0.268,0.99,0.492c0.284,0.224,0.508,0.506,0.672,0.846
			s0.254,0.746,0.27,1.218h-1.08C-152.021,158.324-152.242,157.879-152.622,157.602z"/>
		<path fill="#0072BC" d="M-148.344,158.797v0.912h0.024c0.464-0.705,1.132-1.057,2.004-1.057c0.384,0,0.732,0.08,1.044,0.24
			c0.312,0.16,0.532,0.432,0.66,0.816c0.208-0.336,0.482-0.596,0.822-0.78c0.34-0.185,0.714-0.276,1.121-0.276
			c0.312,0,0.594,0.034,0.846,0.102c0.252,0.068,0.468,0.175,0.648,0.318c0.18,0.145,0.32,0.33,0.42,0.559
			c0.1,0.227,0.15,0.502,0.15,0.822V165h-1.019v-4.067c0-0.192-0.017-0.372-0.048-0.54c-0.032-0.168-0.092-0.314-0.18-0.438
			c-0.088-0.125-0.21-0.223-0.366-0.295c-0.156-0.072-0.358-0.107-0.606-0.107c-0.504,0-0.9,0.144-1.188,0.432
			s-0.432,0.672-0.432,1.152V165h-1.02v-4.067c0-0.2-0.018-0.384-0.054-0.552s-0.098-0.314-0.186-0.439
			c-0.088-0.124-0.206-0.22-0.354-0.288c-0.148-0.068-0.338-0.102-0.57-0.102c-0.296,0-0.55,0.06-0.762,0.18
			c-0.212,0.12-0.384,0.264-0.516,0.432s-0.228,0.342-0.288,0.522c-0.06,0.181-0.09,0.33-0.09,0.45V165h-1.02v-6.203H-148.344z"/>
		<path fill="#0072BC" d="M-134.304,165.133c-0.264,0-0.474-0.074-0.63-0.223c-0.156-0.148-0.234-0.39-0.234-0.726
			c-0.28,0.336-0.606,0.578-0.978,0.726s-0.774,0.223-1.206,0.223c-0.28,0-0.544-0.03-0.792-0.09
			c-0.248-0.061-0.466-0.16-0.654-0.301c-0.188-0.14-0.336-0.319-0.444-0.539c-0.108-0.221-0.162-0.486-0.162-0.799
			c0-0.352,0.06-0.64,0.18-0.863c0.12-0.225,0.278-0.406,0.474-0.547c0.196-0.14,0.42-0.246,0.672-0.318
			c0.252-0.071,0.51-0.131,0.774-0.18c0.28-0.056,0.546-0.098,0.798-0.125c0.252-0.028,0.474-0.068,0.666-0.121
			c0.192-0.051,0.344-0.127,0.456-0.227c0.112-0.101,0.168-0.246,0.168-0.439c0-0.223-0.042-0.403-0.126-0.539
			c-0.084-0.137-0.192-0.24-0.324-0.312c-0.132-0.072-0.28-0.12-0.444-0.145c-0.164-0.023-0.326-0.035-0.486-0.035
			c-0.432,0-0.792,0.082-1.08,0.246s-0.444,0.474-0.468,0.93h-1.02c0.016-0.384,0.096-0.708,0.24-0.973
			c0.144-0.264,0.336-0.478,0.576-0.642c0.24-0.163,0.516-0.282,0.828-0.355c0.312-0.071,0.64-0.107,0.984-0.107
			c0.28,0,0.558,0.02,0.834,0.061c0.276,0.039,0.526,0.121,0.75,0.246c0.224,0.123,0.404,0.298,0.54,0.521
			c0.136,0.225,0.204,0.516,0.204,0.876v3.192c0,0.24,0.014,0.416,0.042,0.527c0.028,0.112,0.122,0.168,0.282,0.168
			c0.088,0,0.192-0.02,0.312-0.059v0.792C-133.749,165.08-133.992,165.133-134.304,165.133z M-135.732,162.006
			c-0.208,0.045-0.426,0.08-0.654,0.108c-0.228,0.028-0.459,0.059-0.691,0.097c-0.232,0.035-0.44,0.094-0.624,0.174
			c-0.185,0.08-0.334,0.193-0.45,0.342c-0.116,0.148-0.174,0.35-0.174,0.605c0,0.168,0.034,0.311,0.102,0.426
			c0.068,0.117,0.156,0.211,0.264,0.283c0.108,0.071,0.236,0.123,0.384,0.155c0.148,0.032,0.298,0.048,0.45,0.048
			c0.336,0,0.624-0.045,0.864-0.138c0.24-0.092,0.436-0.208,0.588-0.349c0.152-0.139,0.264-0.291,0.336-0.455
			c0.072-0.164,0.108-0.318,0.108-0.463v-1.043C-135.356,161.893-135.524,161.963-135.732,162.006z"/>
		<path fill="#0072BC" d="M-131.544,156.433V165h-1.02v-8.567H-131.544z"/>
		<path fill="#0072BC" d="M-128.88,156.433V165h-1.02v-8.567H-128.88z"/>
		<path fill="#0072BC" d="M-184.044,174.096v-0.899H-183v-0.924c0-0.504,0.146-0.886,0.438-1.146s0.718-0.391,1.278-0.391
			c0.096,0,0.206,0.008,0.33,0.023c0.124,0.017,0.234,0.041,0.33,0.072v0.889c-0.088-0.032-0.184-0.055-0.288-0.066
			c-0.104-0.012-0.2-0.018-0.288-0.018c-0.248,0-0.44,0.048-0.576,0.144c-0.136,0.097-0.204,0.28-0.204,0.552v0.864h1.2v0.899h-1.2
			v5.305H-183v-5.305L-184.044,174.096L-184.044,174.096z"/>
		<path fill="#0072BC" d="M-180.012,175.026c0.128-0.395,0.32-0.739,0.576-1.032c0.256-0.291,0.572-0.521,0.948-0.689
			c0.376-0.168,0.808-0.252,1.296-0.252c0.496,0,0.93,0.084,1.302,0.252c0.372,0.168,0.686,0.398,0.942,0.689
			c0.256,0.293,0.448,0.637,0.576,1.032c0.128,0.396,0.192,0.822,0.192,1.278c0,0.455-0.064,0.88-0.192,1.271
			c-0.128,0.393-0.32,0.734-0.576,1.026s-0.57,0.521-0.942,0.685c-0.372,0.163-0.806,0.245-1.302,0.245
			c-0.488,0-0.92-0.082-1.296-0.245c-0.376-0.164-0.692-0.393-0.948-0.685c-0.256-0.292-0.448-0.634-0.576-1.026
			s-0.192-0.816-0.192-1.271S-180.14,175.422-180.012,175.026z M-178.974,177.307c0.1,0.292,0.238,0.535,0.414,0.732
			c0.176,0.195,0.382,0.346,0.618,0.449c0.236,0.104,0.486,0.156,0.75,0.156s0.514-0.053,0.75-0.156
			c0.236-0.104,0.442-0.254,0.618-0.449c0.176-0.197,0.314-0.44,0.414-0.732c0.1-0.292,0.15-0.626,0.15-1.002
			c0-0.377-0.05-0.71-0.15-1.002c-0.1-0.293-0.238-0.538-0.414-0.738c-0.176-0.199-0.382-0.352-0.618-0.456
			c-0.236-0.104-0.486-0.156-0.75-0.156s-0.514,0.052-0.75,0.156c-0.236,0.105-0.442,0.257-0.618,0.456
			c-0.176,0.2-0.314,0.445-0.414,0.738c-0.1,0.292-0.15,0.625-0.15,1.002C-179.124,176.681-179.074,177.015-178.974,177.307z"/>
		<path fill="#0072BC" d="M-172.056,173.196v1.308h0.024c0.248-0.504,0.552-0.875,0.912-1.115s0.816-0.352,1.368-0.336v1.08
			c-0.408,0-0.756,0.056-1.044,0.168c-0.288,0.111-0.521,0.275-0.696,0.492c-0.176,0.215-0.304,0.477-0.384,0.785
			c-0.08,0.309-0.12,0.662-0.12,1.062v2.76h-1.02v-6.204H-172.056z"/>
		<path fill="#0072BC" d="M-163.165,179.4v-6.096h-2.208v-0.816c0.288,0,0.568-0.021,0.84-0.066
			c0.272-0.043,0.518-0.125,0.738-0.246c0.22-0.119,0.406-0.283,0.558-0.491s0.256-0.472,0.312-0.792h0.78v8.508h-1.02V179.4z"/>
		<path fill="#0072BC" d="M-155.22,172.141c-0.248-0.232-0.576-0.348-0.984-0.348c-0.432,0-0.78,0.105-1.044,0.317
			s-0.47,0.479-0.618,0.804c-0.148,0.324-0.25,0.674-0.306,1.051c-0.056,0.375-0.088,0.728-0.096,1.056l0.024,0.024
			c0.24-0.393,0.538-0.676,0.894-0.853c0.356-0.176,0.766-0.265,1.23-0.265c0.408,0,0.774,0.07,1.098,0.211
			c0.324,0.14,0.596,0.334,0.816,0.582s0.39,0.539,0.51,0.875c0.12,0.337,0.18,0.701,0.18,1.093c0,0.311-0.048,0.636-0.144,0.972
			s-0.254,0.643-0.474,0.918c-0.22,0.276-0.512,0.504-0.876,0.684c-0.364,0.181-0.814,0.27-1.35,0.27
			c-0.632,0-1.14-0.128-1.524-0.384s-0.68-0.584-0.888-0.984c-0.208-0.399-0.346-0.84-0.414-1.32
			c-0.068-0.479-0.102-0.943-0.102-1.392c0-0.583,0.05-1.149,0.15-1.698c0.1-0.547,0.27-1.033,0.51-1.457
			c0.24-0.424,0.559-0.764,0.96-1.021c0.4-0.256,0.904-0.384,1.512-0.384c0.704,0,1.264,0.186,1.68,0.558s0.656,0.91,0.72,1.614
			h-1.02C-154.824,172.68-154.972,172.373-155.22,172.141z M-157.068,174.979c-0.216,0.1-0.4,0.236-0.552,0.408
			c-0.152,0.172-0.266,0.376-0.342,0.611c-0.076,0.236-0.114,0.486-0.114,0.75s0.04,0.512,0.12,0.744
			c0.08,0.232,0.194,0.432,0.342,0.6s0.332,0.303,0.552,0.402c0.22,0.101,0.47,0.15,0.75,0.15s0.526-0.05,0.738-0.15
			c0.212-0.1,0.39-0.238,0.534-0.414s0.254-0.378,0.33-0.605c0.076-0.229,0.114-0.467,0.114-0.715c0-0.264-0.034-0.514-0.102-0.75
			c-0.068-0.235-0.174-0.439-0.318-0.611s-0.324-0.311-0.54-0.414c-0.216-0.104-0.468-0.156-0.756-0.156
			C-156.6,174.828-156.852,174.879-157.068,174.979z"/>
		<path fill="#0072BC" d="M-151.248,173.196v0.841h0.024c0.168-0.345,0.432-0.595,0.792-0.75c0.36-0.156,0.756-0.234,1.188-0.234
			c0.48,0,0.898,0.088,1.254,0.264c0.356,0.176,0.652,0.414,0.888,0.714c0.236,0.3,0.414,0.646,0.534,1.038
			c0.12,0.393,0.18,0.809,0.18,1.248s-0.058,0.855-0.174,1.248s-0.292,0.734-0.528,1.025c-0.236,0.293-0.532,0.523-0.888,0.691
			c-0.357,0.168-0.771,0.252-1.242,0.252c-0.152,0-0.322-0.017-0.51-0.048c-0.188-0.032-0.374-0.084-0.558-0.156
			s-0.358-0.17-0.522-0.294c-0.164-0.124-0.302-0.278-0.414-0.462h-0.024v3.191h-1.02v-8.567L-151.248,173.196L-151.248,173.196z
			 M-147.582,175.398c-0.076-0.275-0.192-0.521-0.348-0.738c-0.156-0.216-0.356-0.388-0.6-0.516s-0.53-0.192-0.858-0.192
			c-0.344,0-0.636,0.068-0.876,0.204c-0.24,0.137-0.436,0.314-0.588,0.534s-0.262,0.47-0.33,0.75
			c-0.068,0.28-0.102,0.564-0.102,0.853c0,0.304,0.036,0.598,0.108,0.881c0.072,0.285,0.186,0.535,0.342,0.75
			c0.156,0.217,0.358,0.391,0.607,0.523c0.247,0.132,0.548,0.198,0.9,0.198c0.352,0,0.646-0.068,0.882-0.204
			c0.236-0.136,0.426-0.315,0.57-0.54c0.144-0.224,0.248-0.48,0.312-0.768c0.064-0.289,0.096-0.584,0.096-0.889
			C-147.468,175.957-147.506,175.674-147.582,175.398z"/>
		<path fill="#0072BC" d="M-145.681,173.196h1.308l1.488,2.172l1.548-2.172h1.224l-2.136,2.856l2.4,3.348h-1.308l-1.728-2.568
			l-1.727,2.568h-1.236l2.328-3.264L-145.681,173.196z"/>
		<path fill="#0072BC" d="M-135.673,175.584v0.961h-3.468v-0.961H-135.673z"/>
		<path fill="#0072BC" d="M-131.821,179.4v-6.096h-2.208v-0.816c0.288,0,0.568-0.021,0.84-0.066
			c0.272-0.043,0.518-0.125,0.738-0.246c0.22-0.119,0.406-0.283,0.558-0.491s0.256-0.472,0.312-0.792h0.78v8.508h-1.02V179.4z"/>
		<path fill="#0072BC" d="M-127.741,172.705c0.112-0.369,0.286-0.686,0.522-0.955c0.236-0.268,0.53-0.477,0.882-0.629
			c0.352-0.152,0.752-0.229,1.2-0.229c0.368,0,0.714,0.054,1.038,0.162c0.324,0.107,0.606,0.264,0.846,0.468s0.43,0.458,0.57,0.762
			s0.21,0.656,0.21,1.056c0,0.377-0.058,0.709-0.174,0.996c-0.116,0.289-0.27,0.547-0.462,0.774
			c-0.192,0.228-0.412,0.435-0.66,0.618c-0.248,0.184-0.504,0.359-0.768,0.527c-0.264,0.16-0.528,0.318-0.792,0.475
			c-0.264,0.156-0.506,0.322-0.726,0.498s-0.408,0.365-0.564,0.57c-0.156,0.203-0.258,0.438-0.306,0.701h4.368v0.9h-5.556
			c0.04-0.504,0.13-0.934,0.27-1.29c0.14-0.356,0.318-0.666,0.534-0.931c0.216-0.264,0.46-0.495,0.732-0.695
			c0.271-0.199,0.556-0.388,0.852-0.564c0.36-0.224,0.676-0.43,0.948-0.617c0.272-0.188,0.498-0.379,0.678-0.57
			c0.18-0.191,0.316-0.4,0.408-0.624c0.092-0.224,0.138-0.483,0.138-0.78c0-0.231-0.045-0.441-0.132-0.63
			c-0.088-0.188-0.206-0.35-0.354-0.485c-0.148-0.137-0.322-0.24-0.522-0.312c-0.2-0.072-0.412-0.107-0.636-0.107
			c-0.296,0-0.55,0.062-0.762,0.186c-0.212,0.124-0.386,0.286-0.522,0.486c-0.136,0.199-0.234,0.426-0.294,0.678
			s-0.086,0.506-0.078,0.762h-1.02C-127.897,173.473-127.853,173.072-127.741,172.705z"/>
		<path fill="#0072BC" d="M-121.201,174.252c0.016-0.336,0.056-0.664,0.12-0.983s0.156-0.624,0.276-0.912
			c0.12-0.288,0.284-0.54,0.492-0.756s0.47-0.388,0.786-0.517c0.316-0.127,0.694-0.191,1.134-0.191s0.818,0.064,1.134,0.191
			c0.316,0.129,0.578,0.301,0.786,0.517s0.372,0.468,0.492,0.756c0.12,0.288,0.212,0.593,0.276,0.912s0.104,0.647,0.12,0.983
			c0.016,0.336,0.024,0.66,0.024,0.973s-0.008,0.636-0.024,0.972s-0.056,0.664-0.12,0.983c-0.064,0.32-0.156,0.623-0.276,0.906
			c-0.12,0.285-0.284,0.535-0.492,0.75c-0.208,0.217-0.468,0.387-0.78,0.51c-0.312,0.125-0.692,0.186-1.14,0.186
			c-0.44,0-0.818-0.061-1.134-0.186c-0.316-0.123-0.578-0.293-0.786-0.51c-0.208-0.215-0.372-0.465-0.492-0.75
			c-0.12-0.283-0.212-0.586-0.276-0.906c-0.064-0.319-0.104-0.648-0.12-0.983c-0.016-0.336-0.024-0.659-0.024-0.972
			S-121.217,174.588-121.201,174.252z M-120.115,176.287c0.02,0.396,0.084,0.768,0.192,1.115c0.108,0.348,0.282,0.643,0.522,0.882
			c0.24,0.24,0.576,0.36,1.008,0.36c0.432,0,0.768-0.12,1.008-0.36c0.24-0.239,0.414-0.534,0.522-0.882s0.172-0.72,0.192-1.115
			c0.019-0.396,0.03-0.755,0.03-1.074c0-0.209-0.002-0.439-0.006-0.69c-0.004-0.252-0.024-0.504-0.06-0.756
			c-0.036-0.253-0.088-0.498-0.156-0.738c-0.068-0.239-0.168-0.45-0.3-0.63c-0.132-0.18-0.298-0.326-0.498-0.438
			c-0.2-0.112-0.444-0.168-0.732-0.168s-0.532,0.056-0.732,0.168c-0.2,0.111-0.366,0.258-0.498,0.438
			c-0.132,0.18-0.232,0.391-0.3,0.63c-0.068,0.24-0.12,0.485-0.156,0.738c-0.036,0.252-0.056,0.504-0.06,0.756
			s-0.006,0.481-0.006,0.69C-120.145,175.532-120.135,175.891-120.115,176.287z"/>
		<path fill="#0072BC" d="M-113.232,173.196v0.841h0.024c0.168-0.345,0.432-0.595,0.792-0.75c0.36-0.156,0.756-0.234,1.188-0.234
			c0.48,0,0.898,0.088,1.254,0.264c0.356,0.176,0.652,0.414,0.888,0.714s0.413,0.646,0.534,1.038c0.12,0.393,0.18,0.809,0.18,1.248
			s-0.058,0.855-0.174,1.248c-0.116,0.393-0.292,0.734-0.528,1.025c-0.236,0.293-0.532,0.523-0.888,0.691s-0.771,0.252-1.242,0.252
			c-0.152,0-0.322-0.017-0.51-0.048c-0.188-0.032-0.374-0.084-0.558-0.156s-0.358-0.17-0.522-0.294
			c-0.164-0.124-0.302-0.278-0.414-0.462h-0.024v3.191h-1.02v-8.567L-113.232,173.196L-113.232,173.196z M-109.566,175.398
			c-0.076-0.275-0.192-0.521-0.348-0.738c-0.156-0.216-0.356-0.388-0.6-0.516c-0.244-0.128-0.53-0.192-0.858-0.192
			c-0.344,0-0.636,0.068-0.876,0.204c-0.24,0.137-0.436,0.314-0.588,0.534s-0.262,0.47-0.33,0.75s-0.102,0.564-0.102,0.853
			c0,0.304,0.036,0.598,0.108,0.881c0.072,0.285,0.186,0.535,0.342,0.75c0.156,0.217,0.358,0.391,0.606,0.523
			c0.248,0.132,0.548,0.198,0.9,0.198c0.352,0,0.646-0.068,0.882-0.204s0.426-0.315,0.57-0.54c0.144-0.224,0.248-0.48,0.312-0.768
			c0.064-0.289,0.096-0.584,0.096-0.889C-109.453,175.957-109.491,175.674-109.566,175.398z"/>
		<path fill="#0072BC" d="M-107.665,173.196h1.308l1.488,2.172l1.548-2.172h1.224l-2.136,2.856l2.4,3.348h-1.308l-1.728-2.568
			l-1.728,2.568h-1.236l2.328-3.264L-107.665,173.196z"/>
	</g>
	<g display="inline">
		<path fill="#0072BC" d="M49.735,156.432v7.607h4.536V165h-5.676v-8.568H49.735z"/>
		<path fill="#0072BC" d="M59.863,165.131c-0.264,0-0.475-0.073-0.631-0.221c-0.155-0.148-0.233-0.391-0.233-0.727
			c-0.28,0.336-0.606,0.578-0.978,0.727c-0.373,0.147-0.774,0.221-1.207,0.221c-0.279,0-0.543-0.029-0.791-0.09
			c-0.248-0.06-0.467-0.16-0.654-0.299c-0.188-0.141-0.336-0.32-0.443-0.541c-0.109-0.22-0.162-0.486-0.162-0.798
			c0-0.352,0.059-0.64,0.18-0.864c0.119-0.224,0.277-0.405,0.474-0.545c0.196-0.141,0.42-0.246,0.672-0.318
			c0.252-0.072,0.511-0.133,0.774-0.18c0.279-0.057,0.546-0.099,0.798-0.127c0.252-0.027,0.474-0.067,0.666-0.119
			c0.192-0.053,0.344-0.129,0.456-0.229c0.111-0.1,0.168-0.246,0.168-0.438c0-0.225-0.042-0.404-0.126-0.541
			c-0.084-0.135-0.192-0.239-0.324-0.312c-0.132-0.071-0.28-0.12-0.444-0.143c-0.164-0.024-0.326-0.037-0.485-0.037
			c-0.433,0-0.792,0.083-1.08,0.246c-0.288,0.164-0.444,0.475-0.468,0.931h-1.021c0.017-0.384,0.097-0.708,0.24-0.972
			s0.336-0.479,0.575-0.643c0.24-0.164,0.517-0.281,0.828-0.354c0.313-0.072,0.641-0.108,0.984-0.108c0.28,0,0.559,0.021,0.834,0.06
			c0.276,0.041,0.526,0.123,0.75,0.246c0.225,0.125,0.404,0.299,0.54,0.523s0.204,0.517,0.204,0.876v3.191
			c0,0.24,0.014,0.416,0.042,0.529c0.028,0.111,0.122,0.168,0.282,0.168c0.088,0,0.191-0.02,0.312-0.061v0.792
			C60.419,165.08,60.176,165.131,59.863,165.131z M58.435,162.006c-0.209,0.044-0.426,0.08-0.654,0.107
			c-0.229,0.028-0.459,0.061-0.69,0.096c-0.231,0.037-0.44,0.095-0.624,0.174c-0.184,0.08-0.334,0.195-0.449,0.343
			c-0.117,0.147-0.174,0.351-0.174,0.606c0,0.168,0.033,0.31,0.102,0.426c0.067,0.115,0.156,0.209,0.264,0.281
			c0.107,0.072,0.236,0.125,0.385,0.156c0.147,0.032,0.297,0.049,0.449,0.049c0.336,0,0.624-0.047,0.864-0.139
			c0.239-0.092,0.436-0.208,0.588-0.348c0.151-0.141,0.265-0.293,0.336-0.457c0.071-0.163,0.108-0.317,0.108-0.461v-1.045
			C58.81,161.892,58.643,161.961,58.435,162.006z"/>
		<path fill="#0072BC" d="M62.467,158.795v1.309h0.023c0.248-0.504,0.553-0.876,0.912-1.116c0.36-0.239,0.816-0.352,1.369-0.336
			v1.08c-0.408,0-0.756,0.056-1.045,0.168c-0.287,0.112-0.52,0.276-0.695,0.492c-0.176,0.216-0.305,0.477-0.385,0.786
			c-0.08,0.308-0.119,0.662-0.119,1.062V165h-1.021v-6.205H62.467z"/>
		<path fill="#0072BC" d="M69.859,166.752c-0.465,0.504-1.192,0.756-2.184,0.756c-0.289,0-0.582-0.032-0.883-0.096
			c-0.3-0.064-0.572-0.168-0.816-0.312c-0.244-0.145-0.445-0.332-0.605-0.564s-0.248-0.516-0.264-0.852h1.02
			c0.008,0.184,0.066,0.34,0.174,0.468s0.24,0.231,0.396,0.312c0.156,0.08,0.326,0.139,0.51,0.175
			c0.184,0.036,0.359,0.054,0.527,0.054c0.337,0,0.621-0.059,0.853-0.174c0.231-0.116,0.425-0.275,0.576-0.48
			c0.151-0.203,0.262-0.449,0.33-0.738c0.067-0.287,0.103-0.604,0.103-0.947v-0.408h-0.024c-0.177,0.385-0.442,0.666-0.798,0.846
			c-0.356,0.181-0.734,0.271-1.135,0.271c-0.464,0-0.867-0.084-1.211-0.252c-0.345-0.168-0.633-0.394-0.865-0.679
			c-0.231-0.283-0.406-0.615-0.521-0.996c-0.116-0.379-0.174-0.781-0.174-1.205c0-0.368,0.048-0.746,0.145-1.135
			c0.096-0.387,0.256-0.739,0.479-1.056c0.224-0.315,0.521-0.575,0.888-0.78c0.368-0.203,0.82-0.306,1.355-0.306
			c0.393,0,0.752,0.087,1.08,0.259s0.584,0.43,0.769,0.773h0.013v-0.889h0.959v5.677C70.555,165.487,70.322,166.248,69.859,166.752z
			 M68.557,163.961c0.236-0.139,0.426-0.323,0.57-0.551c0.144-0.229,0.25-0.486,0.318-0.775c0.067-0.288,0.102-0.576,0.102-0.864
			c0-0.271-0.031-0.54-0.096-0.805c-0.064-0.264-0.166-0.502-0.307-0.713c-0.14-0.213-0.322-0.383-0.545-0.51
			c-0.225-0.129-0.496-0.193-0.816-0.193c-0.328,0-0.608,0.062-0.84,0.187c-0.232,0.124-0.422,0.29-0.57,0.498
			c-0.148,0.208-0.256,0.448-0.324,0.72s-0.102,0.557-0.102,0.853c0,0.28,0.027,0.56,0.084,0.84c0.056,0.28,0.152,0.534,0.287,0.763
			c0.137,0.227,0.316,0.412,0.541,0.551c0.224,0.141,0.504,0.211,0.84,0.211C68.035,164.172,68.32,164.102,68.557,163.961z"/>
		<path fill="#0072BC" d="M76.482,164.604c-0.464,0.352-1.048,0.527-1.752,0.527c-0.496,0-0.926-0.08-1.289-0.239
			c-0.365-0.16-0.671-0.384-0.918-0.672c-0.248-0.288-0.435-0.632-0.559-1.032s-0.194-0.836-0.21-1.309
			c0-0.471,0.071-0.903,0.216-1.295c0.145-0.393,0.346-0.732,0.605-1.02c0.26-0.288,0.568-0.512,0.925-0.672
			c0.355-0.16,0.745-0.24,1.17-0.24c0.552,0,1.01,0.114,1.374,0.343c0.363,0.228,0.656,0.518,0.876,0.869
			c0.22,0.353,0.372,0.736,0.456,1.152s0.117,0.812,0.101,1.188h-4.643c-0.009,0.273,0.024,0.53,0.096,0.774s0.188,0.46,0.349,0.648
			c0.159,0.189,0.363,0.338,0.611,0.451c0.248,0.111,0.54,0.168,0.876,0.168c0.433,0,0.786-0.1,1.062-0.301
			c0.277-0.199,0.459-0.504,0.547-0.912h1.008C77.246,163.727,76.947,164.252,76.482,164.604z M76.236,160.619
			c-0.092-0.216-0.215-0.402-0.371-0.558c-0.156-0.156-0.341-0.28-0.553-0.372s-0.445-0.139-0.701-0.139
			c-0.265,0-0.503,0.047-0.715,0.139c-0.212,0.092-0.394,0.219-0.546,0.378c-0.151,0.16-0.272,0.347-0.36,0.558
			c-0.088,0.213-0.14,0.439-0.155,0.679h3.563C76.383,161.064,76.328,160.836,76.236,160.619z"/>
		<path fill="#0072BC" d="M79.459,158.795v1.309h0.023c0.248-0.504,0.553-0.876,0.912-1.116c0.359-0.239,0.816-0.352,1.368-0.336
			v1.08c-0.408,0-0.756,0.056-1.044,0.168s-0.521,0.276-0.696,0.492c-0.176,0.216-0.304,0.477-0.384,0.786
			c-0.08,0.308-0.12,0.662-0.12,1.062V165h-1.021v-6.205H79.459z"/>
		<path fill="#0072BC" d="M32.359,174.096v-0.9h1.044v-0.924c0-0.504,0.146-0.887,0.438-1.146c0.291-0.26,0.717-0.39,1.277-0.39
			c0.096,0,0.206,0.009,0.33,0.024c0.124,0.016,0.234,0.039,0.33,0.072v0.887c-0.088-0.031-0.184-0.053-0.288-0.065
			c-0.104-0.012-0.2-0.019-0.288-0.019c-0.248,0-0.439,0.049-0.576,0.145c-0.136,0.096-0.203,0.28-0.203,0.553v0.863h1.199v0.9
			h-1.199v5.304h-1.021v-5.304L32.359,174.096L32.359,174.096z"/>
		<path fill="#0072BC" d="M36.391,175.025c0.129-0.396,0.32-0.74,0.576-1.031c0.256-0.293,0.572-0.523,0.948-0.691
			c0.376-0.168,0.808-0.252,1.296-0.252c0.496,0,0.93,0.084,1.303,0.252c0.371,0.168,0.685,0.398,0.941,0.691
			c0.256,0.291,0.447,0.635,0.576,1.031c0.128,0.396,0.191,0.822,0.191,1.277c0,0.457-0.063,0.881-0.191,1.272
			c-0.129,0.392-0.32,0.734-0.576,1.026s-0.57,0.52-0.941,0.684c-0.373,0.164-0.807,0.246-1.303,0.246
			c-0.488,0-0.92-0.082-1.296-0.246c-0.376-0.164-0.692-0.392-0.948-0.684s-0.447-0.635-0.576-1.026
			c-0.127-0.392-0.191-0.815-0.191-1.272C36.199,175.848,36.264,175.422,36.391,175.025z M37.43,177.305
			c0.1,0.293,0.237,0.537,0.414,0.732c0.176,0.196,0.381,0.346,0.617,0.45s0.486,0.156,0.75,0.156s0.514-0.052,0.75-0.156
			c0.236-0.105,0.441-0.254,0.618-0.45c0.176-0.195,0.313-0.439,0.414-0.732c0.101-0.291,0.149-0.625,0.149-1.002
			c0-0.375-0.049-0.709-0.149-1.002c-0.101-0.291-0.238-0.537-0.414-0.737c-0.177-0.2-0.382-0.353-0.618-0.456
			c-0.236-0.104-0.486-0.156-0.75-0.156s-0.514,0.053-0.75,0.156c-0.236,0.104-0.441,0.256-0.617,0.456
			c-0.177,0.2-0.314,0.446-0.414,0.737c-0.101,0.293-0.15,0.627-0.15,1.002C37.279,176.68,37.329,177.014,37.43,177.305z"/>
		<path fill="#0072BC" d="M44.348,173.195v1.309h0.023c0.248-0.504,0.553-0.877,0.912-1.117c0.359-0.239,0.816-0.352,1.368-0.336
			v1.08c-0.408,0-0.756,0.057-1.044,0.168c-0.288,0.113-0.521,0.276-0.696,0.492c-0.176,0.217-0.304,0.479-0.384,0.787
			c-0.08,0.307-0.12,0.661-0.12,1.062v2.76h-1.021v-6.204h0.962V173.195z"/>
		<path fill="#0072BC" d="M53.238,179.399v-6.097h-2.207v-0.815c0.287,0,0.567-0.023,0.84-0.065
			c0.271-0.045,0.518-0.127,0.738-0.246c0.219-0.121,0.405-0.284,0.558-0.492c0.151-0.208,0.256-0.473,0.311-0.792h0.78v8.508
			L53.238,179.399L53.238,179.399z"/>
		<path fill="#0072BC" d="M57.319,172.703c0.112-0.367,0.286-0.686,0.522-0.953c0.235-0.269,0.529-0.479,0.881-0.631
			c0.352-0.151,0.752-0.227,1.201-0.227c0.367,0,0.713,0.054,1.037,0.161c0.324,0.109,0.607,0.265,0.846,0.469
			c0.24,0.204,0.431,0.458,0.57,0.762c0.141,0.305,0.211,0.656,0.211,1.057c0,0.375-0.059,0.707-0.175,0.996
			c-0.116,0.287-0.271,0.545-0.462,0.773c-0.191,0.229-0.412,0.434-0.66,0.618c-0.248,0.185-0.504,0.36-0.768,0.528
			c-0.264,0.16-0.528,0.317-0.793,0.474c-0.264,0.155-0.506,0.322-0.725,0.498c-0.221,0.176-0.408,0.366-0.564,0.569
			c-0.156,0.205-0.258,0.438-0.307,0.703h4.369v0.899h-5.557c0.04-0.504,0.13-0.935,0.27-1.29c0.141-0.355,0.318-0.666,0.534-0.93
			c0.216-0.264,0.46-0.496,0.732-0.696c0.271-0.2,0.556-0.388,0.852-0.563c0.36-0.225,0.677-0.431,0.948-0.619
			c0.271-0.188,0.498-0.377,0.678-0.569s0.316-0.399,0.408-0.624c0.092-0.225,0.139-0.484,0.139-0.779
			c0-0.232-0.045-0.443-0.133-0.631s-0.206-0.35-0.354-0.486c-0.148-0.135-0.322-0.24-0.522-0.312
			c-0.2-0.071-0.412-0.108-0.636-0.108c-0.297,0-0.551,0.062-0.762,0.186c-0.213,0.124-0.387,0.286-0.522,0.485
			c-0.136,0.201-0.233,0.427-0.294,0.679c-0.061,0.252-0.086,0.506-0.078,0.762h-1.02C57.163,173.471,57.207,173.071,57.319,172.703
			z"/>
		<path fill="#0072BC" d="M63.859,174.252c0.016-0.336,0.056-0.664,0.119-0.984c0.065-0.32,0.156-0.624,0.276-0.912
			c0.12-0.288,0.284-0.54,0.492-0.756c0.208-0.217,0.47-0.389,0.786-0.516c0.316-0.129,0.693-0.192,1.134-0.192
			c0.44,0,0.817,0.063,1.134,0.192c0.316,0.127,0.578,0.299,0.786,0.516c0.208,0.216,0.372,0.468,0.492,0.756
			c0.12,0.288,0.212,0.592,0.276,0.912c0.063,0.32,0.104,0.648,0.119,0.984c0.017,0.336,0.024,0.66,0.024,0.972
			s-0.008,0.636-0.024,0.972s-0.056,0.664-0.119,0.984c-0.064,0.32-0.156,0.622-0.276,0.906c-0.12,0.283-0.284,0.533-0.492,0.75
			c-0.208,0.215-0.468,0.386-0.78,0.51c-0.312,0.123-0.691,0.186-1.14,0.186c-0.44,0-0.817-0.062-1.134-0.186
			c-0.316-0.124-0.578-0.295-0.786-0.51c-0.208-0.217-0.372-0.467-0.492-0.75c-0.12-0.284-0.212-0.586-0.276-0.906
			c-0.063-0.32-0.103-0.648-0.119-0.984c-0.017-0.336-0.024-0.66-0.024-0.972C63.835,174.912,63.843,174.588,63.859,174.252z
			 M64.945,176.285c0.02,0.396,0.084,0.768,0.191,1.116c0.108,0.349,0.282,0.642,0.522,0.882c0.239,0.24,0.575,0.36,1.008,0.36
			c0.433,0,0.768-0.12,1.009-0.36c0.239-0.24,0.413-0.533,0.521-0.882c0.107-0.349,0.172-0.72,0.191-1.116
			c0.02-0.396,0.03-0.754,0.03-1.074c0-0.207-0.002-0.438-0.006-0.689c-0.005-0.252-0.024-0.504-0.06-0.756
			c-0.037-0.252-0.088-0.498-0.156-0.738s-0.168-0.449-0.301-0.63c-0.131-0.181-0.297-0.325-0.498-0.439
			c-0.199-0.111-0.443-0.168-0.731-0.168s-0.532,0.057-0.732,0.168c-0.201,0.113-0.367,0.258-0.498,0.439
			c-0.133,0.181-0.232,0.39-0.301,0.63c-0.068,0.24-0.119,0.486-0.156,0.738c-0.035,0.252-0.056,0.504-0.06,0.756
			s-0.006,0.482-0.006,0.689C64.915,175.531,64.925,175.89,64.945,176.285z"/>
		<path fill="#0072BC" d="M71.827,173.195v0.84h0.024c0.168-0.344,0.432-0.594,0.791-0.75c0.36-0.156,0.756-0.234,1.188-0.234
			c0.479,0,0.897,0.089,1.254,0.265c0.356,0.177,0.651,0.414,0.888,0.714c0.236,0.301,0.414,0.646,0.534,1.038
			c0.12,0.392,0.181,0.808,0.181,1.248c0,0.441-0.059,0.857-0.175,1.248c-0.116,0.392-0.292,0.733-0.528,1.026
			c-0.235,0.291-0.531,0.521-0.887,0.689c-0.357,0.168-0.771,0.252-1.242,0.252c-0.152,0-0.322-0.016-0.511-0.048
			c-0.188-0.032-0.374-0.084-0.558-0.155c-0.184-0.072-0.358-0.17-0.521-0.295c-0.164-0.123-0.303-0.277-0.414-0.462h-0.024v3.192
			h-1.021v-8.568H71.827z M75.493,175.398c-0.076-0.276-0.192-0.523-0.349-0.738c-0.156-0.216-0.355-0.388-0.6-0.516
			c-0.244-0.128-0.53-0.192-0.857-0.192c-0.345,0-0.637,0.068-0.877,0.204s-0.435,0.313-0.588,0.534
			c-0.152,0.221-0.262,0.471-0.33,0.75c-0.068,0.28-0.102,0.564-0.102,0.852c0,0.305,0.036,0.599,0.107,0.883
			c0.072,0.283,0.187,0.533,0.342,0.75c0.156,0.216,0.358,0.39,0.607,0.521c0.247,0.133,0.547,0.198,0.899,0.198
			c0.352,0,0.646-0.067,0.882-0.204c0.236-0.136,0.426-0.316,0.57-0.54s0.248-0.479,0.312-0.768
			c0.063-0.287,0.097-0.584,0.097-0.887C75.607,175.955,75.568,175.674,75.493,175.398z"/>
		<path fill="#0072BC" d="M77.394,173.195h1.309l1.487,2.172l1.548-2.172h1.225l-2.137,2.855l2.4,3.349h-1.309l-1.728-2.567
			l-1.728,2.567h-1.236l2.328-3.265L77.394,173.195z"/>
		<path fill="#0072BC" d="M93.295,175.955v0.816h-2.616v2.628h-0.815v-2.628h-2.616v-0.816h2.616v-2.627h0.815v2.627H93.295z"/>
	</g>
	<path display="inline" fill="#FFFFFF" d="M-133.29,336.537c-8.995,0-16.288,7.293-16.288,16.29c0,7.196,4.667,13.302,11.141,15.456
		c0.814,0.149,1.112-0.354,1.112-0.785c0-0.387-0.014-1.411-0.022-2.77c-4.531,0.984-5.487-2.184-5.487-2.184
		c-0.741-1.882-1.809-2.383-1.809-2.383c-1.479-1.011,0.112-0.99,0.112-0.99c1.635,0.115,2.495,1.679,2.495,1.679
		c1.453,2.489,3.812,1.77,4.741,1.353c0.148-1.053,0.569-1.771,1.034-2.178c-3.617-0.411-7.42-1.809-7.42-8.051
		c0-1.778,0.635-3.232,1.677-4.371c-0.168-0.412-0.727-2.068,0.16-4.311c0,0,1.368-0.438,4.479,1.67
		c1.299-0.361,2.693-0.542,4.078-0.548c1.383,0.006,2.777,0.187,4.078,0.548c3.11-2.108,4.475-1.67,4.475-1.67
		c0.889,2.243,0.33,3.899,0.162,4.311c1.044,1.139,1.674,2.593,1.674,4.371c0,6.258-3.809,7.635-7.438,8.038
		c0.585,0.503,1.106,1.497,1.106,3.017c0,2.178-0.02,3.935-0.02,4.469c0,0.436,0.293,0.942,1.12,0.783
		c6.467-2.158,11.13-8.26,11.13-15.454C-116.999,343.83-124.293,336.537-133.29,336.537z"/>
	<g display="inline">
		<path fill="#FFFFFF" d="M64.711,287.527c-33.347,0-60.388,27.035-60.388,60.388c0,26.681,17.303,49.316,41.297,57.302
			c3.018,0.559,4.126-1.31,4.126-2.905c0-1.439-0.056-6.197-0.082-11.243c-16.8,3.653-20.345-7.125-20.345-7.125
			c-2.747-6.979-6.705-8.836-6.705-8.836c-5.479-3.748,0.413-3.671,0.413-3.671c6.063,0.426,9.257,6.224,9.257,6.224
			c5.386,9.231,14.127,6.562,17.573,5.02c0.542-3.902,2.106-6.567,3.834-8.075c-13.413-1.526-27.514-6.705-27.514-29.844
			c0-6.593,2.359-11.98,6.223-16.209c-0.627-1.521-2.694-7.663,0.585-15.981c0,0,5.071-1.622,16.61,6.191
			c4.817-1.338,9.983-2.009,15.115-2.033c5.132,0.024,10.302,0.694,15.128,2.033c11.526-7.813,16.59-6.191,16.59-6.191
			c3.287,8.318,1.22,14.46,0.593,15.981c3.872,4.229,6.215,9.616,6.215,16.209c0,23.194-14.127,28.301-27.574,29.796
			c2.166,1.874,4.096,5.549,4.096,11.183c0,8.08-0.069,14.583-0.069,16.572c0,1.607,1.087,3.49,4.147,2.898
			c23.981-7.994,41.263-30.622,41.263-57.294C125.099,314.562,98.061,287.527,64.711,287.527z"/>
		<path fill="#FFFFFF" d="M27.195,374.23c-0.133,0.301-0.605,0.391-1.035,0.185c-0.439-0.197-0.684-0.606-0.542-0.907
			c0.13-0.309,0.602-0.395,1.04-0.189C27.097,373.517,27.347,373.93,27.195,374.23L27.195,374.23z"/>
		<path fill="#FFFFFF" d="M29.642,376.959c-0.288,0.267-0.852,0.143-1.233-0.279c-0.396-0.421-0.469-0.984-0.177-1.255
			c0.297-0.267,0.843-0.142,1.238,0.279C29.865,376.13,29.942,376.689,29.642,376.959L29.642,376.959z"/>
		<path fill="#FFFFFF" d="M32.022,380.436c-0.37,0.258-0.976,0.017-1.35-0.521c-0.37-0.537-0.37-1.182,0.009-1.439
			c0.374-0.258,0.971-0.025,1.35,0.507C32.4,379.529,32.4,380.174,32.022,380.436L32.022,380.436z"/>
		<path fill="#FFFFFF" d="M35.284,383.797c-0.331,0.365-1.036,0.267-1.552-0.232c-0.528-0.486-0.675-1.178-0.344-1.543
			c0.336-0.365,1.045-0.263,1.564,0.231C35.477,382.74,35.637,383.435,35.284,383.797L35.284,383.797z"/>
		<path fill="#FFFFFF" d="M39.784,385.748c-0.146,0.473-0.825,0.688-1.509,0.486c-0.684-0.207-1.13-0.761-0.992-1.238
			c0.142-0.477,0.824-0.7,1.513-0.485C39.478,384.717,39.926,385.267,39.784,385.748L39.784,385.748z"/>
		<path fill="#FFFFFF" d="M44.727,386.109c0.017,0.498-0.563,0.911-1.281,0.92c-0.722,0.017-1.307-0.387-1.314-0.877
			c0-0.503,0.567-0.911,1.289-0.924C44.138,385.215,44.727,385.615,44.727,386.109L44.727,386.109z"/>
		<path fill="#FFFFFF" d="M49.325,385.327c0.086,0.485-0.413,0.984-1.126,1.117c-0.701,0.129-1.35-0.172-1.439-0.653
			c-0.087-0.498,0.421-0.997,1.121-1.126C48.595,384.541,49.234,384.833,49.325,385.327L49.325,385.327z"/>
	</g>
	<g display="inline">
		<g>
			
				<line fill="none" stroke="#1981BC" stroke-linecap="round" stroke-miterlimit="10" x1="-61" y1="281.594" x2="-61" y2="282.094"/>
			
				<line fill="none" stroke="#1981BC" stroke-linecap="round" stroke-miterlimit="10" stroke-dasharray="0.9999,1.9999" x1="-61" y1="284.094" x2="-61" y2="418.087"/>
			
				<line fill="none" stroke="#1981BC" stroke-linecap="round" stroke-miterlimit="10" x1="-61" y1="419.087" x2="-61" y2="419.587"/>
		</g>
	</g>
	<g display="inline">
		<path fill="#0072BC" d="M-152.622,433.603c-0.38-0.276-0.866-0.414-1.458-0.414c-0.24,0-0.476,0.024-0.708,0.071
			c-0.232,0.049-0.438,0.129-0.618,0.24c-0.18,0.113-0.324,0.263-0.432,0.451s-0.162,0.422-0.162,0.701
			c0,0.264,0.078,0.479,0.234,0.643c0.156,0.164,0.364,0.298,0.624,0.401c0.26,0.105,0.554,0.19,0.882,0.259
			c0.328,0.067,0.662,0.142,1.002,0.221c0.34,0.08,0.674,0.175,1.002,0.283c0.328,0.107,0.622,0.254,0.882,0.438
			c0.26,0.184,0.468,0.416,0.624,0.695c0.156,0.281,0.234,0.633,0.234,1.057c0,0.456-0.102,0.846-0.306,1.17
			c-0.204,0.324-0.466,0.588-0.786,0.792c-0.32,0.204-0.678,0.352-1.074,0.444c-0.396,0.092-0.79,0.138-1.182,0.138
			c-0.48,0-0.934-0.06-1.362-0.18s-0.804-0.302-1.128-0.546c-0.324-0.244-0.58-0.557-0.768-0.936
			c-0.188-0.38-0.282-0.829-0.282-1.35h1.08c0,0.36,0.07,0.67,0.21,0.93c0.14,0.261,0.324,0.474,0.552,0.642
			c0.228,0.168,0.494,0.293,0.798,0.373c0.304,0.08,0.616,0.119,0.936,0.119c0.256,0,0.514-0.023,0.774-0.072
			c0.26-0.047,0.494-0.129,0.702-0.246c0.208-0.115,0.376-0.273,0.504-0.473c0.128-0.201,0.192-0.457,0.192-0.768
			c0-0.296-0.078-0.536-0.234-0.72c-0.156-0.184-0.364-0.334-0.624-0.45c-0.26-0.116-0.554-0.21-0.882-0.282
			c-0.328-0.072-0.662-0.146-1.002-0.223c-0.34-0.075-0.674-0.163-1.002-0.264c-0.328-0.1-0.623-0.232-0.882-0.396
			c-0.26-0.164-0.468-0.376-0.624-0.636c-0.156-0.26-0.234-0.586-0.234-0.979c0-0.432,0.088-0.806,0.264-1.122
			c0.176-0.315,0.41-0.575,0.702-0.78c0.292-0.203,0.624-0.356,0.996-0.455c0.372-0.101,0.754-0.15,1.146-0.15
			c0.44,0,0.848,0.053,1.224,0.156c0.376,0.104,0.706,0.268,0.99,0.492c0.284,0.224,0.508,0.506,0.672,0.846
			c0.164,0.34,0.254,0.746,0.27,1.218h-1.08C-152.021,434.324-152.242,433.879-152.622,433.603z"/>
		<path fill="#0072BC" d="M-148.344,434.797v0.912h0.024c0.464-0.705,1.132-1.057,2.004-1.057c0.384,0,0.732,0.08,1.044,0.24
			c0.312,0.16,0.532,0.432,0.66,0.816c0.208-0.336,0.482-0.596,0.822-0.78c0.34-0.185,0.714-0.276,1.121-0.276
			c0.312,0,0.594,0.034,0.846,0.102s0.468,0.175,0.648,0.318c0.18,0.145,0.32,0.33,0.42,0.559c0.1,0.228,0.15,0.502,0.15,0.822V441
			h-1.019v-4.067c0-0.192-0.017-0.372-0.048-0.54c-0.032-0.168-0.092-0.315-0.18-0.438c-0.088-0.125-0.21-0.223-0.366-0.295
			c-0.156-0.072-0.358-0.107-0.606-0.107c-0.504,0-0.9,0.144-1.188,0.432c-0.288,0.288-0.432,0.672-0.432,1.152V441h-1.02v-4.067
			c0-0.2-0.018-0.384-0.054-0.552c-0.036-0.168-0.098-0.314-0.186-0.438c-0.088-0.124-0.206-0.22-0.354-0.288
			c-0.148-0.068-0.338-0.102-0.57-0.102c-0.296,0-0.55,0.06-0.762,0.18c-0.212,0.12-0.384,0.264-0.516,0.432
			c-0.132,0.168-0.228,0.342-0.288,0.522c-0.06,0.181-0.09,0.33-0.09,0.45V441h-1.02v-6.203H-148.344z"/>
		<path fill="#0072BC" d="M-134.304,441.133c-0.264,0-0.474-0.074-0.63-0.223c-0.156-0.147-0.234-0.39-0.234-0.726
			c-0.28,0.336-0.606,0.578-0.978,0.726s-0.774,0.223-1.206,0.223c-0.28,0-0.544-0.03-0.792-0.09
			c-0.248-0.061-0.466-0.16-0.654-0.301c-0.188-0.14-0.336-0.319-0.444-0.539c-0.108-0.221-0.162-0.486-0.162-0.799
			c0-0.352,0.06-0.64,0.18-0.863c0.12-0.225,0.278-0.406,0.474-0.547c0.196-0.14,0.42-0.246,0.672-0.318
			c0.252-0.071,0.51-0.131,0.774-0.18c0.28-0.056,0.546-0.098,0.798-0.125c0.252-0.028,0.474-0.068,0.666-0.121
			c0.192-0.051,0.344-0.127,0.456-0.228c0.112-0.101,0.168-0.246,0.168-0.438c0-0.223-0.042-0.403-0.126-0.539
			c-0.084-0.137-0.192-0.24-0.324-0.312s-0.28-0.12-0.444-0.145c-0.164-0.023-0.326-0.035-0.486-0.035
			c-0.432,0-0.792,0.082-1.08,0.246s-0.444,0.474-0.468,0.93h-1.02c0.016-0.384,0.096-0.708,0.24-0.973
			c0.144-0.264,0.336-0.478,0.576-0.642c0.24-0.163,0.516-0.282,0.828-0.354c0.312-0.071,0.64-0.107,0.984-0.107
			c0.28,0,0.558,0.02,0.834,0.061c0.276,0.039,0.526,0.121,0.75,0.246c0.224,0.123,0.404,0.298,0.54,0.521
			c0.136,0.225,0.204,0.516,0.204,0.876v3.192c0,0.24,0.014,0.416,0.042,0.527c0.028,0.112,0.122,0.168,0.282,0.168
			c0.088,0,0.192-0.02,0.312-0.06v0.792C-133.749,441.08-133.992,441.133-134.304,441.133z M-135.732,438.006
			c-0.208,0.045-0.426,0.08-0.654,0.108c-0.228,0.028-0.459,0.06-0.691,0.097c-0.232,0.035-0.44,0.094-0.624,0.174
			c-0.185,0.08-0.334,0.193-0.45,0.342c-0.116,0.148-0.174,0.35-0.174,0.605c0,0.168,0.034,0.311,0.102,0.426
			c0.068,0.117,0.156,0.211,0.264,0.283c0.108,0.071,0.236,0.123,0.384,0.155c0.148,0.032,0.298,0.048,0.45,0.048
			c0.336,0,0.624-0.045,0.864-0.138c0.24-0.092,0.436-0.208,0.588-0.349c0.152-0.139,0.264-0.291,0.336-0.455
			c0.072-0.164,0.108-0.318,0.108-0.463v-1.043C-135.356,437.893-135.524,437.963-135.732,438.006z"/>
		<path fill="#0072BC" d="M-131.544,432.433V441h-1.02v-8.567H-131.544z"/>
		<path fill="#0072BC" d="M-128.88,432.433V441h-1.02v-8.567H-128.88z"/>
		<path fill="#0072BC" d="M-184.044,450.096v-0.899H-183v-0.924c0-0.504,0.146-0.886,0.438-1.145
			c0.292-0.26,0.718-0.391,1.278-0.391c0.096,0,0.206,0.008,0.33,0.023c0.124,0.017,0.234,0.041,0.33,0.072v0.889
			c-0.088-0.032-0.184-0.055-0.288-0.066c-0.104-0.012-0.2-0.018-0.288-0.018c-0.248,0-0.44,0.048-0.576,0.144
			c-0.136,0.097-0.204,0.28-0.204,0.552v0.864h1.2v0.899h-1.2v5.305H-183v-5.305L-184.044,450.096L-184.044,450.096z"/>
		<path fill="#0072BC" d="M-180.012,451.026c0.128-0.396,0.32-0.739,0.576-1.032c0.256-0.291,0.572-0.521,0.948-0.689
			c0.376-0.168,0.808-0.252,1.296-0.252c0.496,0,0.93,0.084,1.302,0.252c0.372,0.168,0.686,0.398,0.942,0.689
			c0.256,0.293,0.448,0.637,0.576,1.032c0.128,0.396,0.192,0.822,0.192,1.278c0,0.455-0.064,0.88-0.192,1.272
			c-0.128,0.393-0.32,0.734-0.576,1.026s-0.57,0.52-0.942,0.685c-0.372,0.163-0.806,0.245-1.302,0.245
			c-0.488,0-0.92-0.082-1.296-0.245c-0.376-0.164-0.692-0.393-0.948-0.685s-0.448-0.634-0.576-1.026
			c-0.128-0.392-0.192-0.816-0.192-1.272C-180.204,451.849-180.14,451.422-180.012,451.026z M-178.974,453.307
			c0.1,0.292,0.238,0.535,0.414,0.732c0.176,0.195,0.382,0.346,0.618,0.449c0.236,0.103,0.486,0.156,0.75,0.156
			s0.514-0.053,0.75-0.156c0.236-0.104,0.442-0.254,0.618-0.449c0.176-0.197,0.314-0.44,0.414-0.732s0.15-0.626,0.15-1.002
			c0-0.377-0.05-0.71-0.15-1.002c-0.1-0.293-0.238-0.538-0.414-0.738c-0.176-0.199-0.382-0.352-0.618-0.456s-0.486-0.156-0.75-0.156
			s-0.514,0.052-0.75,0.156s-0.442,0.257-0.618,0.456c-0.176,0.2-0.314,0.445-0.414,0.738c-0.1,0.292-0.15,0.625-0.15,1.002
			C-179.124,452.681-179.074,453.015-178.974,453.307z"/>
		<path fill="#0072BC" d="M-172.056,449.196v1.308h0.024c0.248-0.504,0.552-0.875,0.912-1.115s0.816-0.352,1.368-0.336v1.08
			c-0.408,0-0.756,0.056-1.044,0.168c-0.288,0.111-0.521,0.275-0.696,0.492c-0.176,0.215-0.304,0.478-0.384,0.785
			c-0.08,0.309-0.12,0.662-0.12,1.062v2.76h-1.02v-6.204H-172.056L-172.056,449.196z"/>
		<path fill="#0072BC" d="M-163.165,455.4v-6.096h-2.208v-0.816c0.288,0,0.568-0.022,0.84-0.066
			c0.272-0.043,0.518-0.125,0.738-0.246c0.22-0.119,0.406-0.283,0.558-0.491s0.256-0.472,0.312-0.792h0.78v8.508L-163.165,455.4
			L-163.165,455.4z"/>
		<path fill="#0072BC" d="M-155.22,448.141c-0.248-0.232-0.576-0.348-0.984-0.348c-0.432,0-0.78,0.105-1.044,0.317
			c-0.264,0.212-0.47,0.479-0.618,0.804c-0.148,0.324-0.25,0.674-0.306,1.051c-0.056,0.375-0.088,0.728-0.096,1.056l0.024,0.024
			c0.24-0.393,0.538-0.676,0.894-0.852c0.356-0.176,0.766-0.265,1.23-0.265c0.408,0,0.774,0.07,1.098,0.211
			c0.324,0.14,0.596,0.334,0.816,0.582s0.39,0.539,0.51,0.875c0.12,0.337,0.18,0.701,0.18,1.093c0,0.311-0.048,0.636-0.144,0.972
			s-0.254,0.643-0.474,0.918c-0.22,0.276-0.512,0.504-0.876,0.684c-0.364,0.181-0.814,0.271-1.35,0.271
			c-0.632,0-1.14-0.128-1.524-0.384c-0.384-0.256-0.68-0.584-0.888-0.984c-0.208-0.4-0.346-0.84-0.414-1.32
			c-0.068-0.48-0.102-0.943-0.102-1.392c0-0.583,0.05-1.149,0.15-1.698c0.1-0.547,0.27-1.033,0.51-1.457
			c0.24-0.424,0.559-0.764,0.96-1.021c0.4-0.256,0.904-0.384,1.512-0.384c0.704,0,1.264,0.185,1.68,0.558
			c0.416,0.373,0.656,0.91,0.72,1.614h-1.02C-154.824,448.68-154.972,448.373-155.22,448.141z M-157.068,450.978
			c-0.216,0.1-0.4,0.236-0.552,0.408c-0.152,0.172-0.266,0.376-0.342,0.611c-0.076,0.236-0.114,0.486-0.114,0.75
			c0,0.264,0.04,0.512,0.12,0.744s0.194,0.432,0.342,0.6c0.148,0.168,0.332,0.303,0.552,0.402c0.22,0.101,0.47,0.15,0.75,0.15
			s0.526-0.05,0.738-0.15c0.212-0.1,0.39-0.238,0.534-0.414c0.144-0.176,0.254-0.378,0.33-0.605
			c0.076-0.229,0.114-0.467,0.114-0.715c0-0.264-0.034-0.514-0.102-0.75c-0.068-0.235-0.174-0.439-0.318-0.611
			s-0.324-0.311-0.54-0.414c-0.216-0.104-0.468-0.156-0.756-0.156C-156.6,450.828-156.852,450.879-157.068,450.978z"/>
		<path fill="#0072BC" d="M-151.248,449.196v0.841h0.024c0.168-0.345,0.432-0.595,0.792-0.75c0.36-0.156,0.756-0.234,1.188-0.234
			c0.48,0,0.898,0.088,1.254,0.264c0.356,0.176,0.652,0.414,0.888,0.714c0.236,0.3,0.414,0.646,0.534,1.038
			c0.12,0.393,0.18,0.809,0.18,1.248c0,0.439-0.058,0.855-0.174,1.248c-0.116,0.392-0.292,0.734-0.528,1.025
			c-0.236,0.293-0.532,0.522-0.888,0.69c-0.357,0.168-0.771,0.252-1.242,0.252c-0.152,0-0.322-0.017-0.51-0.048
			c-0.188-0.032-0.374-0.084-0.558-0.156c-0.184-0.072-0.358-0.17-0.522-0.294c-0.164-0.124-0.302-0.278-0.414-0.462h-0.024v3.191
			h-1.02v-8.567L-151.248,449.196L-151.248,449.196z M-147.582,451.398c-0.076-0.275-0.192-0.521-0.348-0.738
			c-0.156-0.216-0.356-0.388-0.6-0.516s-0.53-0.192-0.858-0.192c-0.344,0-0.636,0.068-0.876,0.204
			c-0.24,0.137-0.436,0.314-0.588,0.534c-0.152,0.22-0.262,0.47-0.33,0.75c-0.068,0.28-0.102,0.564-0.102,0.853
			c0,0.304,0.036,0.598,0.108,0.881c0.072,0.285,0.186,0.535,0.342,0.75c0.156,0.217,0.358,0.391,0.607,0.522
			c0.247,0.132,0.548,0.198,0.9,0.198c0.352,0,0.646-0.068,0.882-0.204c0.236-0.136,0.426-0.315,0.57-0.54
			c0.144-0.224,0.248-0.48,0.312-0.768c0.064-0.289,0.096-0.584,0.096-0.889C-147.468,451.957-147.506,451.674-147.582,451.398z"/>
		<path fill="#0072BC" d="M-145.681,449.196h1.308l1.488,2.172l1.548-2.172h1.224l-2.136,2.856l2.4,3.348h-1.308l-1.728-2.568
			l-1.727,2.568h-1.236l2.328-3.264L-145.681,449.196z"/>
		<path fill="#0072BC" d="M-135.673,451.584v0.961h-3.468v-0.961H-135.673z"/>
		<path fill="#0072BC" d="M-131.821,455.4v-6.096h-2.208v-0.816c0.288,0,0.568-0.022,0.84-0.066
			c0.272-0.043,0.518-0.125,0.738-0.246c0.22-0.119,0.406-0.283,0.558-0.491s0.256-0.472,0.312-0.792h0.78v8.508L-131.821,455.4
			L-131.821,455.4z"/>
		<path fill="#0072BC" d="M-127.741,448.705c0.112-0.369,0.286-0.687,0.522-0.955s0.53-0.478,0.882-0.629
			c0.352-0.152,0.752-0.228,1.2-0.228c0.368,0,0.714,0.054,1.038,0.162c0.324,0.107,0.606,0.264,0.846,0.468s0.43,0.458,0.57,0.762
			c0.14,0.304,0.21,0.656,0.21,1.056c0,0.377-0.058,0.709-0.174,0.996c-0.116,0.289-0.27,0.547-0.462,0.775
			c-0.192,0.227-0.412,0.434-0.66,0.618s-0.504,0.359-0.768,0.527c-0.264,0.16-0.528,0.318-0.792,0.475
			c-0.264,0.156-0.506,0.322-0.726,0.498c-0.22,0.176-0.408,0.365-0.564,0.57c-0.156,0.203-0.258,0.438-0.306,0.701h4.368v0.9
			h-5.556c0.04-0.504,0.13-0.934,0.27-1.29c0.14-0.357,0.318-0.666,0.534-0.931c0.216-0.264,0.46-0.495,0.732-0.695
			c0.271-0.199,0.556-0.388,0.852-0.565c0.36-0.224,0.676-0.43,0.948-0.617c0.272-0.188,0.498-0.379,0.678-0.57
			c0.18-0.191,0.316-0.4,0.408-0.624c0.092-0.224,0.138-0.483,0.138-0.78c0-0.231-0.045-0.441-0.132-0.63
			c-0.088-0.188-0.206-0.35-0.354-0.485c-0.148-0.137-0.322-0.24-0.522-0.312c-0.2-0.072-0.412-0.107-0.636-0.107
			c-0.296,0-0.55,0.061-0.762,0.185c-0.212,0.124-0.386,0.286-0.522,0.486c-0.136,0.199-0.234,0.426-0.294,0.678
			s-0.086,0.506-0.078,0.762h-1.02C-127.897,449.473-127.853,449.072-127.741,448.705z"/>
		<path fill="#0072BC" d="M-121.201,450.252c0.016-0.336,0.056-0.664,0.12-0.983c0.064-0.319,0.156-0.624,0.276-0.912
			c0.12-0.288,0.284-0.54,0.492-0.756s0.47-0.388,0.786-0.517c0.316-0.127,0.694-0.191,1.134-0.191s0.818,0.064,1.134,0.191
			c0.316,0.129,0.578,0.301,0.786,0.517s0.372,0.468,0.492,0.756c0.12,0.288,0.212,0.593,0.276,0.912
			c0.064,0.319,0.104,0.647,0.12,0.983c0.016,0.336,0.024,0.66,0.024,0.973s-0.008,0.636-0.024,0.972s-0.056,0.664-0.12,0.983
			c-0.064,0.32-0.156,0.623-0.276,0.906c-0.12,0.285-0.284,0.535-0.492,0.75c-0.208,0.217-0.468,0.387-0.78,0.51
			c-0.312,0.125-0.692,0.186-1.14,0.186c-0.44,0-0.818-0.061-1.134-0.186c-0.316-0.123-0.578-0.293-0.786-0.51
			c-0.208-0.215-0.372-0.465-0.492-0.75c-0.12-0.283-0.212-0.586-0.276-0.906c-0.064-0.319-0.104-0.647-0.12-0.983
			c-0.016-0.336-0.024-0.659-0.024-0.972S-121.217,450.588-121.201,450.252z M-120.115,452.287c0.02,0.395,0.084,0.768,0.192,1.115
			c0.108,0.348,0.282,0.643,0.522,0.882c0.24,0.24,0.576,0.36,1.008,0.36c0.432,0,0.768-0.12,1.008-0.36
			c0.24-0.239,0.414-0.534,0.522-0.882c0.108-0.348,0.172-0.72,0.192-1.115c0.019-0.397,0.03-0.755,0.03-1.074
			c0-0.209-0.002-0.438-0.006-0.69s-0.024-0.504-0.06-0.756c-0.036-0.253-0.088-0.498-0.156-0.738c-0.068-0.239-0.168-0.45-0.3-0.63
			s-0.298-0.326-0.498-0.438c-0.2-0.112-0.444-0.168-0.732-0.168s-0.532,0.056-0.732,0.168c-0.2,0.111-0.366,0.258-0.498,0.438
			s-0.232,0.391-0.3,0.63c-0.068,0.24-0.12,0.485-0.156,0.738c-0.036,0.252-0.056,0.504-0.06,0.756s-0.006,0.481-0.006,0.69
			C-120.145,451.532-120.135,451.891-120.115,452.287z"/>
		<path fill="#0072BC" d="M-113.232,449.196v0.841h0.024c0.168-0.345,0.432-0.595,0.792-0.75c0.36-0.156,0.756-0.234,1.188-0.234
			c0.48,0,0.898,0.088,1.254,0.264c0.356,0.176,0.652,0.414,0.888,0.714s0.413,0.646,0.534,1.038c0.12,0.393,0.18,0.809,0.18,1.248
			c0,0.439-0.058,0.855-0.174,1.248c-0.116,0.392-0.292,0.734-0.528,1.025c-0.236,0.293-0.532,0.522-0.888,0.69
			c-0.356,0.168-0.771,0.252-1.242,0.252c-0.152,0-0.322-0.017-0.51-0.048c-0.188-0.032-0.374-0.084-0.558-0.156
			c-0.184-0.072-0.358-0.17-0.522-0.294c-0.164-0.124-0.302-0.278-0.414-0.462h-0.024v3.191h-1.02v-8.567L-113.232,449.196
			L-113.232,449.196z M-109.566,451.398c-0.076-0.275-0.192-0.521-0.348-0.738c-0.156-0.216-0.356-0.388-0.6-0.516
			c-0.244-0.128-0.53-0.192-0.858-0.192c-0.344,0-0.636,0.068-0.876,0.204c-0.24,0.137-0.436,0.314-0.588,0.534
			c-0.152,0.22-0.262,0.47-0.33,0.75c-0.068,0.28-0.102,0.564-0.102,0.853c0,0.304,0.036,0.598,0.108,0.881
			c0.072,0.285,0.186,0.535,0.342,0.75c0.156,0.217,0.358,0.391,0.606,0.522c0.248,0.132,0.548,0.198,0.9,0.198
			c0.352,0,0.646-0.068,0.882-0.204s0.426-0.315,0.57-0.54c0.144-0.224,0.248-0.48,0.312-0.768c0.064-0.289,0.096-0.584,0.096-0.889
			C-109.453,451.957-109.491,451.674-109.566,451.398z"/>
		<path fill="#0072BC" d="M-107.665,449.196h1.308l1.488,2.172l1.548-2.172h1.224l-2.136,2.856l2.4,3.348h-1.308l-1.728-2.568
			l-1.728,2.568h-1.236l2.328-3.264L-107.665,449.196z"/>
	</g>
	<g display="inline">
		<path fill="#0072BC" d="M49.735,432.432v7.607h4.536V441h-5.676v-8.568H49.735z"/>
		<path fill="#0072BC" d="M59.863,441.131c-0.264,0-0.475-0.073-0.631-0.221c-0.155-0.148-0.233-0.391-0.233-0.727
			c-0.28,0.336-0.606,0.578-0.978,0.727c-0.373,0.147-0.774,0.221-1.207,0.221c-0.279,0-0.543-0.029-0.791-0.09
			c-0.248-0.06-0.467-0.16-0.654-0.299c-0.188-0.141-0.336-0.32-0.443-0.541c-0.109-0.22-0.162-0.486-0.162-0.798
			c0-0.352,0.059-0.64,0.18-0.864c0.119-0.224,0.277-0.405,0.474-0.545c0.196-0.141,0.42-0.246,0.672-0.318
			c0.252-0.072,0.511-0.133,0.774-0.18c0.279-0.057,0.546-0.099,0.798-0.127c0.252-0.027,0.474-0.067,0.666-0.119
			c0.192-0.053,0.344-0.129,0.456-0.228c0.111-0.1,0.168-0.246,0.168-0.438c0-0.225-0.042-0.404-0.126-0.541
			c-0.084-0.135-0.192-0.239-0.324-0.312c-0.132-0.071-0.28-0.12-0.444-0.144s-0.326-0.037-0.485-0.037
			c-0.433,0-0.792,0.083-1.08,0.246c-0.288,0.164-0.444,0.475-0.468,0.931h-1.021c0.017-0.384,0.097-0.708,0.24-0.972
			c0.143-0.264,0.336-0.479,0.575-0.643c0.24-0.164,0.517-0.281,0.828-0.354c0.313-0.072,0.641-0.108,0.984-0.108
			c0.28,0,0.559,0.021,0.834,0.06c0.276,0.041,0.526,0.123,0.75,0.246c0.225,0.125,0.404,0.299,0.54,0.522
			c0.136,0.224,0.204,0.517,0.204,0.876v3.191c0,0.24,0.014,0.416,0.042,0.529c0.028,0.111,0.122,0.168,0.282,0.168
			c0.088,0,0.191-0.021,0.312-0.061v0.792C60.419,441.08,60.176,441.131,59.863,441.131z M58.435,438.006
			c-0.209,0.044-0.426,0.08-0.654,0.107c-0.229,0.028-0.459,0.06-0.69,0.096c-0.231,0.037-0.44,0.095-0.624,0.174
			c-0.184,0.08-0.334,0.195-0.449,0.343c-0.117,0.147-0.174,0.351-0.174,0.606c0,0.168,0.033,0.31,0.102,0.426
			c0.067,0.115,0.156,0.209,0.264,0.281c0.107,0.072,0.236,0.125,0.385,0.156c0.147,0.032,0.297,0.049,0.449,0.049
			c0.336,0,0.624-0.047,0.864-0.139c0.239-0.092,0.436-0.208,0.588-0.348c0.151-0.141,0.265-0.293,0.336-0.457
			c0.071-0.163,0.108-0.317,0.108-0.461v-1.045C58.81,437.892,58.643,437.961,58.435,438.006z"/>
		<path fill="#0072BC" d="M62.467,434.795v1.309h0.023c0.248-0.504,0.553-0.876,0.912-1.116c0.36-0.239,0.816-0.352,1.369-0.336
			v1.08c-0.408,0-0.756,0.056-1.045,0.168c-0.287,0.112-0.52,0.276-0.695,0.492c-0.176,0.216-0.305,0.478-0.385,0.786
			c-0.08,0.308-0.119,0.662-0.119,1.062V441h-1.021v-6.205H62.467z"/>
		<path fill="#0072BC" d="M69.859,442.752c-0.465,0.504-1.192,0.756-2.184,0.756c-0.289,0-0.582-0.032-0.883-0.096
			c-0.3-0.064-0.572-0.168-0.816-0.312c-0.244-0.145-0.445-0.332-0.605-0.564s-0.248-0.516-0.264-0.852h1.02
			c0.008,0.184,0.066,0.34,0.174,0.468s0.24,0.231,0.396,0.311c0.156,0.08,0.326,0.139,0.51,0.175
			c0.184,0.036,0.359,0.054,0.527,0.054c0.337,0,0.621-0.059,0.853-0.174c0.231-0.116,0.425-0.275,0.576-0.48
			c0.151-0.203,0.262-0.449,0.33-0.738c0.067-0.287,0.103-0.603,0.103-0.947v-0.408h-0.024c-0.177,0.385-0.442,0.666-0.798,0.846
			c-0.356,0.181-0.734,0.271-1.135,0.271c-0.464,0-0.867-0.084-1.211-0.252c-0.345-0.168-0.633-0.393-0.865-0.679
			c-0.231-0.283-0.406-0.615-0.521-0.996c-0.116-0.379-0.174-0.781-0.174-1.205c0-0.368,0.048-0.746,0.145-1.135
			c0.096-0.387,0.256-0.739,0.479-1.056c0.224-0.315,0.521-0.575,0.888-0.78c0.368-0.203,0.82-0.306,1.355-0.306
			c0.393,0,0.752,0.087,1.08,0.259s0.584,0.43,0.769,0.773h0.013v-0.889h0.959v5.677C70.555,441.487,70.322,442.248,69.859,442.752z
			 M68.557,439.961c0.236-0.139,0.426-0.323,0.57-0.551c0.144-0.229,0.25-0.486,0.318-0.774c0.067-0.288,0.102-0.576,0.102-0.864
			c0-0.272-0.031-0.54-0.096-0.805c-0.064-0.264-0.166-0.502-0.307-0.713c-0.14-0.213-0.322-0.383-0.545-0.51
			c-0.225-0.129-0.496-0.193-0.816-0.193c-0.328,0-0.608,0.062-0.84,0.186c-0.232,0.124-0.422,0.29-0.57,0.498
			c-0.148,0.208-0.256,0.448-0.324,0.72c-0.068,0.272-0.102,0.557-0.102,0.852c0,0.28,0.027,0.56,0.084,0.84
			c0.056,0.28,0.152,0.534,0.287,0.763c0.137,0.228,0.316,0.412,0.541,0.551c0.224,0.141,0.504,0.211,0.84,0.211
			S68.32,440.102,68.557,439.961z"/>
		<path fill="#0072BC" d="M76.482,440.603c-0.464,0.352-1.048,0.527-1.752,0.527c-0.496,0-0.926-0.08-1.289-0.239
			c-0.365-0.16-0.671-0.384-0.918-0.672c-0.248-0.288-0.435-0.632-0.559-1.032s-0.194-0.836-0.21-1.309
			c0-0.471,0.071-0.903,0.216-1.295c0.145-0.393,0.346-0.732,0.605-1.021c0.26-0.288,0.568-0.512,0.925-0.672
			c0.355-0.16,0.745-0.24,1.17-0.24c0.552,0,1.01,0.114,1.374,0.343c0.363,0.228,0.656,0.518,0.876,0.869
			c0.22,0.352,0.372,0.736,0.456,1.152s0.117,0.812,0.101,1.188h-4.643c-0.009,0.272,0.024,0.53,0.096,0.774
			c0.072,0.244,0.188,0.46,0.349,0.647c0.159,0.189,0.363,0.338,0.611,0.451c0.248,0.111,0.54,0.168,0.876,0.168
			c0.433,0,0.786-0.101,1.062-0.301c0.277-0.199,0.459-0.504,0.547-0.912h1.008C77.246,439.728,76.947,440.252,76.482,440.603z
			 M76.236,436.619c-0.092-0.216-0.215-0.402-0.371-0.558c-0.156-0.156-0.341-0.28-0.553-0.372
			c-0.212-0.092-0.445-0.139-0.701-0.139c-0.265,0-0.503,0.047-0.715,0.139c-0.212,0.092-0.394,0.219-0.546,0.378
			c-0.151,0.16-0.272,0.347-0.36,0.558c-0.088,0.213-0.14,0.439-0.155,0.679h3.563C76.383,437.064,76.328,436.836,76.236,436.619z"
			/>
		<path fill="#0072BC" d="M79.459,434.795v1.309h0.023c0.248-0.504,0.553-0.876,0.912-1.116c0.359-0.239,0.816-0.352,1.368-0.336
			v1.08c-0.408,0-0.756,0.056-1.044,0.168s-0.521,0.276-0.696,0.492c-0.176,0.216-0.304,0.478-0.384,0.786
			c-0.08,0.308-0.12,0.662-0.12,1.062V441h-1.021v-6.205H79.459z"/>
		<path fill="#0072BC" d="M32.359,450.096v-0.9h1.044v-0.924c0-0.504,0.146-0.887,0.438-1.147c0.291-0.26,0.717-0.39,1.277-0.39
			c0.096,0,0.206,0.009,0.33,0.024c0.124,0.016,0.234,0.039,0.33,0.072v0.887c-0.088-0.031-0.184-0.053-0.288-0.066
			c-0.104-0.012-0.2-0.018-0.288-0.018c-0.248,0-0.439,0.049-0.576,0.145c-0.136,0.096-0.203,0.28-0.203,0.553v0.863h1.199v0.9
			h-1.199v5.304h-1.021v-5.304h-1.043V450.096z"/>
		<path fill="#0072BC" d="M36.391,451.025c0.129-0.396,0.32-0.74,0.576-1.031c0.256-0.293,0.572-0.523,0.948-0.691
			c0.376-0.168,0.808-0.252,1.296-0.252c0.496,0,0.93,0.084,1.303,0.252c0.371,0.168,0.685,0.398,0.941,0.691
			c0.256,0.291,0.447,0.635,0.576,1.031c0.128,0.397,0.191,0.822,0.191,1.277c0,0.457-0.063,0.881-0.191,1.272
			c-0.129,0.392-0.32,0.734-0.576,1.026s-0.57,0.52-0.941,0.684c-0.373,0.164-0.807,0.246-1.303,0.246
			c-0.488,0-0.92-0.082-1.296-0.246c-0.376-0.164-0.692-0.392-0.948-0.684s-0.447-0.635-0.576-1.026
			c-0.127-0.392-0.191-0.815-0.191-1.272C36.199,451.848,36.264,451.422,36.391,451.025z M37.43,453.305
			c0.1,0.293,0.237,0.537,0.414,0.732c0.176,0.196,0.381,0.346,0.617,0.45s0.486,0.156,0.75,0.156s0.514-0.052,0.75-0.156
			s0.441-0.254,0.618-0.45c0.176-0.195,0.313-0.439,0.414-0.732c0.101-0.291,0.149-0.625,0.149-1.002
			c0-0.375-0.049-0.709-0.149-1.002c-0.101-0.291-0.238-0.537-0.414-0.737c-0.177-0.2-0.382-0.353-0.618-0.456
			c-0.236-0.103-0.486-0.156-0.75-0.156s-0.514,0.053-0.75,0.156c-0.236,0.104-0.441,0.256-0.617,0.456
			c-0.177,0.2-0.314,0.446-0.414,0.737c-0.101,0.293-0.15,0.627-0.15,1.002C37.279,452.68,37.329,453.014,37.43,453.305z"/>
		<path fill="#0072BC" d="M44.348,449.195v1.309h0.023c0.248-0.504,0.553-0.877,0.912-1.117c0.359-0.239,0.816-0.352,1.368-0.336
			v1.08c-0.408,0-0.756,0.057-1.044,0.168c-0.288,0.113-0.521,0.276-0.696,0.492c-0.176,0.217-0.304,0.479-0.384,0.787
			c-0.08,0.307-0.12,0.661-0.12,1.061v2.76h-1.021v-6.204H44.348L44.348,449.195z"/>
		<path fill="#0072BC" d="M53.238,455.399v-6.097h-2.207v-0.815c0.287,0,0.567-0.022,0.84-0.065
			c0.271-0.045,0.518-0.127,0.738-0.246c0.219-0.121,0.405-0.284,0.558-0.492c0.151-0.208,0.256-0.473,0.311-0.792h0.78v8.508h-1.02
			V455.399z"/>
		<path fill="#0072BC" d="M57.319,448.703c0.112-0.367,0.286-0.685,0.522-0.953c0.235-0.269,0.529-0.478,0.881-0.631
			c0.352-0.151,0.752-0.228,1.201-0.228c0.367,0,0.713,0.054,1.037,0.161c0.324,0.109,0.607,0.265,0.846,0.469
			c0.24,0.204,0.431,0.458,0.57,0.762c0.141,0.305,0.211,0.656,0.211,1.057c0,0.375-0.059,0.707-0.175,0.996
			c-0.116,0.287-0.271,0.545-0.462,0.773c-0.191,0.228-0.412,0.434-0.66,0.618c-0.248,0.185-0.504,0.36-0.768,0.528
			c-0.264,0.16-0.528,0.317-0.793,0.474c-0.264,0.155-0.506,0.322-0.725,0.498c-0.221,0.176-0.408,0.366-0.564,0.569
			c-0.156,0.205-0.258,0.439-0.307,0.703h4.369v0.899h-5.557c0.04-0.504,0.13-0.935,0.27-1.29c0.141-0.355,0.318-0.666,0.534-0.93
			c0.216-0.264,0.46-0.496,0.732-0.696c0.271-0.2,0.556-0.388,0.852-0.564c0.36-0.225,0.677-0.431,0.948-0.619
			c0.271-0.188,0.498-0.377,0.678-0.569c0.18-0.192,0.316-0.399,0.408-0.624c0.092-0.225,0.139-0.484,0.139-0.779
			c0-0.232-0.045-0.443-0.133-0.631s-0.206-0.35-0.354-0.486c-0.148-0.135-0.322-0.24-0.522-0.311
			c-0.2-0.071-0.412-0.108-0.636-0.108c-0.297,0-0.551,0.062-0.762,0.187c-0.213,0.124-0.387,0.286-0.522,0.485
			c-0.136,0.201-0.233,0.427-0.294,0.679c-0.061,0.252-0.086,0.506-0.078,0.762h-1.02C57.163,449.471,57.207,449.071,57.319,448.703
			z"/>
		<path fill="#0072BC" d="M63.859,450.252c0.016-0.336,0.056-0.664,0.119-0.984c0.065-0.32,0.156-0.624,0.276-0.912
			c0.12-0.288,0.284-0.54,0.492-0.756c0.208-0.217,0.47-0.389,0.786-0.516c0.316-0.129,0.693-0.192,1.134-0.192
			c0.44,0,0.817,0.064,1.134,0.192c0.316,0.127,0.578,0.299,0.786,0.516c0.208,0.216,0.372,0.468,0.492,0.756
			c0.12,0.288,0.212,0.592,0.276,0.912c0.063,0.32,0.104,0.648,0.119,0.984c0.017,0.336,0.024,0.66,0.024,0.972
			c0,0.312-0.008,0.636-0.024,0.972s-0.056,0.664-0.119,0.984c-0.064,0.32-0.156,0.622-0.276,0.906
			c-0.12,0.283-0.284,0.533-0.492,0.75c-0.208,0.215-0.468,0.386-0.78,0.51c-0.312,0.123-0.691,0.186-1.14,0.186
			c-0.44,0-0.817-0.062-1.134-0.186c-0.316-0.124-0.578-0.295-0.786-0.51c-0.208-0.217-0.372-0.467-0.492-0.75
			c-0.12-0.284-0.212-0.586-0.276-0.906c-0.063-0.32-0.103-0.648-0.119-0.984c-0.017-0.336-0.024-0.66-0.024-0.972
			C63.835,450.912,63.843,450.588,63.859,450.252z M64.945,452.285c0.02,0.396,0.084,0.768,0.191,1.116
			c0.108,0.349,0.282,0.642,0.522,0.882c0.239,0.24,0.575,0.36,1.008,0.36c0.433,0,0.768-0.12,1.009-0.36
			c0.239-0.24,0.413-0.533,0.521-0.882c0.107-0.349,0.172-0.72,0.191-1.116c0.02-0.396,0.03-0.754,0.03-1.074
			c0-0.207-0.002-0.438-0.006-0.689c-0.005-0.252-0.024-0.504-0.06-0.756c-0.037-0.252-0.088-0.498-0.156-0.738
			s-0.168-0.449-0.301-0.63c-0.131-0.181-0.297-0.325-0.498-0.438c-0.199-0.111-0.443-0.168-0.731-0.168s-0.532,0.057-0.732,0.168
			c-0.201,0.113-0.367,0.258-0.498,0.438c-0.133,0.181-0.232,0.39-0.301,0.63c-0.068,0.24-0.119,0.486-0.156,0.738
			c-0.035,0.252-0.056,0.504-0.06,0.756s-0.006,0.482-0.006,0.689C64.915,451.531,64.925,451.89,64.945,452.285z"/>
		<path fill="#0072BC" d="M71.827,449.195v0.84h0.024c0.168-0.344,0.432-0.594,0.791-0.75c0.36-0.156,0.756-0.234,1.188-0.234
			c0.479,0,0.897,0.089,1.254,0.265c0.356,0.177,0.651,0.414,0.888,0.714c0.236,0.301,0.414,0.647,0.534,1.038
			c0.12,0.392,0.181,0.808,0.181,1.248c0,0.44-0.059,0.857-0.175,1.248c-0.116,0.392-0.292,0.733-0.528,1.026
			c-0.235,0.291-0.531,0.521-0.887,0.689c-0.357,0.168-0.771,0.252-1.242,0.252c-0.152,0-0.322-0.016-0.511-0.048
			c-0.188-0.032-0.374-0.084-0.558-0.155c-0.184-0.072-0.358-0.17-0.521-0.295c-0.164-0.123-0.303-0.277-0.414-0.462h-0.024v3.192
			h-1.021v-8.568L71.827,449.195L71.827,449.195z M75.493,451.397c-0.076-0.276-0.192-0.522-0.349-0.738
			c-0.156-0.216-0.355-0.388-0.6-0.516c-0.244-0.128-0.53-0.192-0.857-0.192c-0.345,0-0.637,0.068-0.877,0.204
			s-0.435,0.314-0.588,0.534c-0.152,0.221-0.262,0.471-0.33,0.75c-0.068,0.28-0.102,0.564-0.102,0.851
			c0,0.305,0.036,0.599,0.107,0.883c0.072,0.283,0.187,0.533,0.342,0.75c0.156,0.216,0.358,0.39,0.607,0.522
			c0.247,0.133,0.547,0.198,0.899,0.198c0.352,0,0.646-0.067,0.882-0.204c0.236-0.136,0.426-0.317,0.57-0.54
			c0.144-0.224,0.248-0.48,0.312-0.769c0.063-0.287,0.097-0.584,0.097-0.887C75.607,451.955,75.568,451.674,75.493,451.397z"/>
		<path fill="#0072BC" d="M77.394,449.195h1.309l1.487,2.172l1.548-2.172h1.225l-2.137,2.855l2.4,3.349h-1.309l-1.728-2.567
			l-1.728,2.567h-1.236l2.328-3.265L77.394,449.195z"/>
		<path fill="#0072BC" d="M93.295,451.955v0.816h-2.616v2.628h-0.815v-2.628h-2.616v-0.816h2.616v-2.627h0.815v2.627H93.295z"/>
	</g>
</g>
<g id="Layer_3">
	<path fill="#F1676B" d="M122.425,39.072c-4.254,1.887-8.825,3.162-13.624,3.735c4.898-2.936,8.659-7.584,10.43-13.123
		c-4.583,2.718-9.66,4.693-15.063,5.756c-4.327-4.61-10.492-7.491-17.314-7.491c-13.101,0-23.722,10.621-23.722,23.72
		c0,1.859,0.21,3.67,0.614,5.406c-19.714-0.989-37.193-10.433-48.892-24.784c-2.042,3.503-3.211,7.578-3.211,11.925
		c0,8.229,4.188,15.49,10.553,19.744c-3.888-0.123-7.546-1.19-10.744-2.967c-0.002,0.099-0.002,0.198-0.002,0.298
		c0,11.493,8.177,21.081,19.028,23.26c-1.991,0.542-4.086,0.832-6.25,0.832c-1.529,0-3.015-0.149-4.463-0.425
		c3.019,9.424,11.779,16.282,22.159,16.474c-8.118,6.362-18.346,10.154-29.46,10.154c-1.915,0-3.803-0.112-5.659-0.331
		c10.498,6.73,22.966,10.657,36.362,10.657c43.631,0,67.491-36.145,67.491-67.491c0-1.028-0.023-2.051-0.069-3.069
		C115.223,48.007,119.245,43.829,122.425,39.072z"/>
</g>
<g id="Layer_4" display="none">
	<g display="inline">
		<g>
			<g>
				<path fill="#F1676B" d="M99.308,23.105H16.331c-3.967,0-7.188,3.145-7.188,7.016v83.335c0,3.878,3.221,7.026,7.188,7.026h82.977
					c3.971,0,7.213-3.149,7.213-7.026V30.121C106.52,26.25,103.279,23.105,99.308,23.105z"/>
				<path fill="#FFFFFF" d="M23.573,59.614h14.449v46.47H23.573V59.614z M30.799,36.511c4.617,0,8.37,3.753,8.37,8.372
					c0,4.624-3.753,8.377-8.37,8.377c-4.63,0-8.372-3.753-8.372-8.377C22.427,40.264,26.169,36.511,30.799,36.511"/>
				<path fill="#FFFFFF" d="M47.081,59.614h13.856v6.347h0.197c1.928-3.652,6.641-7.505,13.667-7.505
					c14.615,0,17.314,9.622,17.314,22.14v25.489H77.69V83.487c0-5.392-0.106-12.324-7.507-12.324c-7.516,0-8.662,5.871-8.662,11.933
					v22.988h-14.44V59.614z"/>
			</g>
		</g>
		<g>
			<polygon points="109.641,101.759 111.029,101.759 111.029,106.084 111.783,106.084 111.783,101.759 113.167,101.759 
				113.167,101.005 109.641,101.005 			"/>
			<polygon points="118.069,101.005 116.588,104.732 115.109,101.005 114.035,101.005 114.035,106.084 114.785,106.084 
				114.785,102.22 116.338,106.084 116.84,106.084 118.393,102.22 118.393,106.084 119.144,106.084 119.144,101.005 			"/>
		</g>
	</g>
</g>
</svg>
