<svg xmlns="http://www.w3.org/2000/svg" viewBox="0 0 612 730.93"><title>Asset 5</title><g id="Layer_2" data-name="Layer 2"><g id="Layer_3" data-name="Layer 3"><rect width="612" height="730.93" style="fill:#ffcfbc"/><circle cx="512.77" cy="120.16" r="43.72" style="fill:#fff"/><rect x="478.27" y="125.08" width="34.42" height="12.78" rx="6.18" ry="6.18" transform="translate(238.08 -311.85) rotate(45)" style="fill:#ffcfbc"/><path d="M539.46,145.65h-8.54c-2.32,0-4.15,0-3.37-3.52l.6-2.55c0-2,1.16-2.44,2.76-2.44h11a4.07,4.07,0,0,1,1.15,2.51v.55C542.13,142.94,541.07,145.65,539.46,145.65Z" style="fill:#ffcfbc"/><polyline points="519.78 128.47 509.14 139.05 487.87 117.89 509.14 96.61 519.97 107.25" style="fill:none;stroke:#000;stroke-linecap:round;stroke-linejoin:round;stroke-width:4.45588036199565px"/><line x1="530.42" y1="139.16" x2="541.06" y2="139.05" style="fill:none;stroke:#000;stroke-linecap:round;stroke-linejoin:round;stroke-width:4.45588036199565px"/></g><g id="Layer_5" data-name="Layer 5"><path id="path2941" d="M439.12,242.82l-50.34,16.42,33.15,118.63,49.9-16-32.7-119Zm66.71,5.6-48.52,18,26,91.78L531,342.62l-25.16-94.21Zm-130.9,12-55.37,24,34,121,56.61-20.43L374.92,260.45ZM317,315.75l-46.56,13.63L292.27,424l47.83-16.84Zm219.44,38.89L425.27,387.89,437,426l65.87-12.44L516.72,436,293.1,433.17,368.22,549.4,350.31,730.23H525.83l-21.7-176.82,88.94-115.8-56.63-83Z" style="fill:#3a1b06"/><polygon points="324.77 406.66 304.7 413.75 295.83 376.63 312.11 370.87 324.77 406.66" style="fill:#fc2b80;opacity:0.8"/><polygon points="392.72 385.22 372.66 392.31 363.78 355.19 380.07 349.43 392.72 385.22" style="fill:#fc2b80;opacity:0.8"/><polygon points="455.36 361.77 435.3 368.87 426.42 331.75 442.7 325.99 455.36 361.77" style="fill:#fc2b80;opacity:0.8"/><polygon points="452.26 390.89 428.45 399.31 425.37 388.4 448.48 380.22 452.26 390.89" style="fill:#fc2b80;opacity:0.8"/><path d="M363.78,588.74c-70.68,94,127.35,85.62,146.5,4.51" style="fill:none;stroke:#bf1ed6;stroke-linecap:round;stroke-miterlimit:10;stroke-width:6.830227118036419px"/><polygon points="515.24 341.33 495.17 348.43 486.3 311.3 502.58 305.55 515.24 341.33" style="fill:#fc2b80;opacity:0.8"/></g></g></svg>