<svg xmlns="http://www.w3.org/2000/svg" viewBox="0 0 229.13 71.36"><title>hands</title><g id="Layer_9" data-name="Layer 9" style="opacity:0.6900000000000001"><path id="path2941" d="M1906.28,203l-7.37,2.4,4.85,17.37,7.31-2.35L1906.28,203h0Zm9.77,0.82-7.1,2.63,3.81,13.44,7-2.28L1916,203.86h0Zm-19.17,1.76-8.11,3.52,5,17.72,8.29-3-5.16-18.25h0Zm-8.48,8.1-6.82,2,3.19,13.85,7-2.47Zm32.13,5.69-16.28,4.87,1.72,5.58,9.64-1.82,2,3.29-32.74-.41,11,17-2.62,26.47H1919l-3.18-25.89,13-17-8.29-12.15h0Z" transform="translate(-1699.69 -203.04)" style="fill:#bf672c"/><polygon points="152.32 11.15 145.51 13.15 148.7 27 155.7 24.53 152.32 11.15" style="fill:#a35821"/><polygon points="153.46 24.46 150.52 25.5 149.22 20.07 151.6 19.22 153.46 24.46" style="fill:#8014a8;opacity:0.8"/><polyline points="184.45 16.85 168.17 21.71 169.89 27.29 179.54 25.47 181.56 28.76 148.82 28.34 159.82 45.36 157.24 71.36 182.84 71.36 179.72 45.95 192.74 28.99" style="fill:#a35821"/><path id="path2941-2" data-name="path2941" d="M1832.95,203l-7.37,2.4,4.85,17.37,7.31-2.35L1832.95,203h0Zm9.77,0.82-7.1,2.63,3.81,13.44,7-2.28-3.68-13.79h0Zm-19.17,1.76-8.11,3.52,5,17.72,8.29-3-5.16-18.25h0Zm-8.48,8.1-6.82,2,3.19,13.85,7-2.47Zm32.13,5.69-16.28,4.87,1.72,5.58,9.64-1.82,2,3.29-32.74-.41,11,17-2.62,26.47h25.7l-3.18-25.89,13-17-8.29-12.15h0Z" transform="translate(-1699.69 -203.04)" style="fill:#8e4000"/><polygon points="97.95 0 90.58 2.4 95.43 19.77 102.74 17.43 97.95 0 97.95 0" style="fill:#662c04"/><polygon points="107.72 0.82 100.61 3.45 104.42 16.89 111.4 14.61 107.72 0.82 107.72 0.82" style="fill:#662c04"/><polygon points="88.55 2.58 80.44 6.1 85.42 23.82 93.71 20.83 88.55 2.58 88.55 2.58" style="fill:#662c04"/><polygon points="80.07 10.68 73.26 12.67 76.45 26.52 83.45 24.06 80.07 10.68" style="fill:#662c04"/><polyline points="112.2 16.37 95.92 21.24 97.64 26.82 107.29 25 109.31 28.28 76.57 27.87 87.57 44.89 84.95 71.36 110.65 71.36 107.47 45.47 120.49 28.52" style="fill:#662c04"/><polygon points="81.21 23.99 78.27 25.03 76.97 19.59 79.36 18.75 81.21 23.99" style="fill:#16a575;opacity:0.8"/><polygon points="91.16 20.85 88.22 21.89 86.92 16.45 89.3 15.61 91.16 20.85" style="fill:#16a575;opacity:0.8"/><polygon points="100.33 17.42 97.39 18.45 96.09 13.02 98.47 12.18 100.33 17.42" style="fill:#16a575;opacity:0.8"/><polygon points="109.3 14.28 106.36 15.32 105.06 9.88 107.44 9.04 109.3 14.28" style="fill:#16a575;opacity:0.8"/><polygon points="99.87 21.68 96.39 22.91 95.94 21.31 99.32 20.12 99.87 21.68" style="fill:#16a575;opacity:0.8"/><path d="M1786.61,253.69c-10.35,13.76,18.65,12.54,21.45.66" transform="translate(-1699.69 -203.04)" style="fill:none;stroke:#208fd3;stroke-linecap:round;stroke-miterlimit:10"/><path id="path2941-3" data-name="path2941" d="M1759.5,203l-7.37,2.4,4.85,17.37,7.31-2.35L1759.5,203h0Zm9.77,0.82-7.1,2.63,3.81,13.44,7-2.28-3.68-13.79h0Zm-19.17,1.76-8.11,3.52,5,17.72,8.29-3-5.16-18.25h0Zm-8.48,8.1-6.82,2,3.19,13.85,7-2.47Zm32.13,5.69-16.28,4.87,1.72,5.58,9.64-1.82,2,3.29-32.74-.41,11,17-2.62,26.47h25.7L1769,248.51l13-17-8.29-12.15h0Z" transform="translate(-1699.69 -203.04)" style="fill:#492107"/><path id="path2941-4" data-name="path2941" d="M1724.39,203l-7.37,2.4,4.85,17.37,7.31-2.35L1724.39,203h0Zm9.77,0.82-7.1,2.63,3.81,13.44,7-2.28-3.68-13.79h0ZM1715,205.62l-8.11,3.52,5,17.72,8.29-3L1715,205.62h0Zm-8.48,8.1-6.82,2,3.19,13.85,7-2.47Zm32.13,5.69-16.28,4.87,1.72,5.58,9.64-1.82,2,3.29-32.74-.41,11,17-2.62,26.47h25.7l-3.18-25.89,13-17-8.29-12.15h0Z" transform="translate(-1699.69 -203.04)" style="fill:#3a1b06"/><polygon points="7.95 23.99 5.01 25.03 3.71 19.59 6.1 18.75 7.95 23.99" style="fill:#fc2b80;opacity:0.8"/><polygon points="17.9 20.85 14.96 21.89 13.66 16.45 16.05 15.61 17.9 20.85" style="fill:#fc2b80;opacity:0.8"/><polygon points="27.07 17.42 24.13 18.45 22.83 13.02 25.22 12.18 27.07 17.42" style="fill:#fc2b80;opacity:0.8"/><polygon points="36.04 14.28 33.1 15.32 31.8 9.88 34.19 9.04 36.04 14.28" style="fill:#fc2b80;opacity:0.8"/><polygon points="26.62 21.68 23.13 22.91 22.68 21.31 26.07 20.12 26.62 21.68" style="fill:#fc2b80;opacity:0.8"/><path d="M1713.36,253.69c-10.35,13.76,18.65,12.54,21.45.66" transform="translate(-1699.69 -203.04)" style="fill:none;stroke:#bf1ed6;stroke-linecap:round;stroke-miterlimit:10"/><polygon points="170.2 0.47 162.83 2.88 167.68 20.25 174.99 17.9 170.2 0.47 170.2 0.47" style="fill:#a35821"/><polygon points="179.97 1.29 172.86 3.93 176.67 17.36 183.65 15.09 179.97 1.29 179.97 1.29" style="fill:#a35821"/><polygon points="160.8 3.06 152.69 6.58 157.67 24.3 165.96 21.3 160.8 3.06 160.8 3.06" style="fill:#a35821"/><polygon points="163.41 21.32 160.47 22.36 159.17 16.93 161.55 16.08 163.41 21.32" style="fill:#8014a8;opacity:0.8"/><polygon points="172.58 17.89 169.64 18.93 168.34 13.49 170.72 12.65 172.58 17.89" style="fill:#8014a8;opacity:0.8"/><polygon points="181.55 14.75 178.61 15.79 177.31 10.36 179.69 9.51 181.55 14.75" style="fill:#8014a8;opacity:0.8"/><polygon points="172.12 22.15 168.64 23.39 168.19 21.79 171.57 20.59 172.12 22.15" style="fill:#8014a8;opacity:0.8"/><path d="M1858.86,254.16c-10.35,13.76,18.65,12.54,21.45.66" transform="translate(-1699.69 -203.04)" style="fill:none;stroke:#25d320;stroke-linecap:round;stroke-miterlimit:10"/></g></svg>