<svg xmlns="http://www.w3.org/2000/svg" viewBox="0 0 137.22 53.64"><title>Asset 33</title><g id="Layer_2" data-name="Layer 2"><g id="tagline"><path d="M48,52.82A2.62,2.62,0,0,1,45.42,50v-.36c0-1.35,3.26-4.28,3.5-4.52.08-.08.37-.06.48-.06H62s1.25.13,1.26,1.88v1.2c-.32,1.14-2.42,2.78-3.4,3.67a3.92,3.92,0,0,1-2.65,1H48Z" style="fill:#ffcfbc"/><rect x="-3.16" y="31.86" width="37.7" height="12.17" rx="4.68" ry="4.68" transform="translate(31.43 0.02) rotate(45)" style="fill:#ffcfbc"/><polyline points="39.29 35.86 28.55 46.54 7.06 25.17 28.55 3.68 39.48 14.43" style="fill:none;stroke:#000;stroke-linecap:round;stroke-linejoin:round;stroke-width:7.360536563833007px"/><line x1="50.03" y1="47.33" x2="60.78" y2="47.21" style="fill:none;stroke:#000;stroke-linecap:round;stroke-linejoin:round;stroke-width:5.35311750096946px"/><text transform="translate(49.83 18.22)" style="font-size:19.32741928100586px;font-family:Montserrat-Black, Montserrat"><tspan style="letter-spacing:-0.009751770774964587em">C</tspan><tspan x="13.11" y="0">OLOR</tspan><tspan x="0" y="20.09" xml:space="preserve">    </tspan><tspan x="16.16" y="20.09" style="letter-spacing:-0.009777034429822008em">C</tspan><tspan x="29.26" y="20.09" style="letter-spacing:0.000025263654857421208em">ODED</tspan></text></g></g></svg>