<svg xmlns="http://www.w3.org/2000/svg" viewBox="0 0 62.93 53.29"><title>Asset 29</title><g id="Layer_2" data-name="Layer 2"><g id="Layer_14" data-name="Layer 14"><rect x="9.7" y="19.32" width="12.46" height="36.09" rx="2.99" ry="2.99" transform="translate(-21.76 22.2) rotate(-45)" style="fill:#ffcfbc"/><polyline points="39.61 34.44 29.24 44.75 8.5 24.13 29.24 3.39 39.79 13.76" style="fill:none;stroke:#000;stroke-linecap:round;stroke-linejoin:round;stroke-width:6.779918440723986px"/><path d="M47.35,50.61a2.6,2.6,0,0,1-2.58-2.82v-.36c0-1.35,3.24-4.26,3.48-4.49.08-.08.36-.06.47-.06H61.27s1.24.13,1.26,1.87v1.19c-.32,1.13-2.41,2.76-3.38,3.65a3.9,3.9,0,0,1-2.63,1H47.35Z" style="fill:#ffcfbc"/><line x1="49.98" y1="44.86" x2="60.34" y2="44.75" style="fill:none;stroke:#000;stroke-linecap:round;stroke-linejoin:round;stroke-width:5.165652145313506px"/></g></g></svg>