<svg xmlns="http://www.w3.org/2000/svg" viewBox="0 0 238.96 168.19"><title>Asset 25</title><g id="Layer_2" data-name="Layer 2"><g id="tagline"><rect x="134.6" y="70.56" width="104.36" height="19.55" style="fill:#fff"/><rect x="111.63" y="40.86" width="101.56" height="19.55" style="fill:#fff"/><circle cx="84.09" cy="84.09" r="84.09" style="fill:#fff"/><rect x="52.36" y="70.83" width="18.33" height="53.1" rx="4.4" ry="4.4" transform="translate(-50.84 72.03) rotate(-45)" style="fill:#ffcfbc"/><polyline points="96.38 93.07 81.12 108.24 50.61 77.89 81.12 47.38 96.64 62.64" style="fill:none;stroke:#000;stroke-linecap:round;stroke-linejoin:round;stroke-width:9.975411080630296px"/><path d="M107.76,116.86a3.83,3.83,0,0,1-3.8-4.15v-.53c0-2,4.77-6.26,5.13-6.61.11-.11.54-.09.7-.09h18.46s1.83.19,1.85,2.75V110c-.48,1.66-3.54,4.07-5,5.37a5.74,5.74,0,0,1-3.88,1.5H107.76Z" style="fill:#ffcfbc"/><line x1="111.63" y1="108.4" x2="126.88" y2="108.24" style="fill:none;stroke:#000;stroke-linecap:round;stroke-linejoin:round;stroke-width:7.60031320428974px"/><text transform="translate(111.63 65.51)" style="font-size:27.89366912841797px;font-family:Montserrat-Black, Montserrat"><tspan style="letter-spacing:-0.0097678414498155em">C</tspan><tspan x="18.92" y="0">OLOR</tspan><tspan x="0" y="29" xml:space="preserve">    </tspan><tspan x="23.32" y="29" style="letter-spacing:-0.0097678414498155em">C</tspan><tspan x="42.24" y="29">ODED</tspan></text></g></g></svg>