<svg xmlns="http://www.w3.org/2000/svg" viewBox="0 0 616.11 733.54"><title>Asset 19 1</title><g id="Layer_2" data-name="Layer 2"><g id="Layer_3" data-name="Layer 3"><rect width="612" height="730.93" style="fill:#ffcfbc"/><polyline points="125.65 730.7 265.24 413.16 484.6 730.7" style="fill:none;stroke:#fff;stroke-miterlimit:10;stroke-width:10px"/><polygon points="465.76 700.52 361.39 550.97 435.71 413.16 531.95 551.09 465.76 700.52" style="fill:#fff;stroke:#fff;stroke-miterlimit:10;stroke-width:0.996510974650295px"/><polyline points="465.08 700.22 546.17 515.78 612 611.08" style="fill:none;stroke:#fff;stroke-miterlimit:10;stroke-width:10px"/><path d="M0,234.33" style="fill:none;stroke:#fff;stroke-miterlimit:10;stroke-width:20px"/><circle cx="512.77" cy="120.16" r="43.72" style="fill:#fff"/><rect x="478.27" y="125.08" width="34.42" height="12.78" rx="6.18" ry="6.18" transform="translate(238.08 -311.85) rotate(45)" style="fill:#ffcfbc"/><path d="M539.46,145.65h-8.54c-2.32,0-4.15,0-3.37-3.52l.6-2.55c0-2,1.16-2.44,2.76-2.44h11a4.07,4.07,0,0,1,1.15,2.51v.55C542.13,142.94,541.07,145.65,539.46,145.65Z" style="fill:#ffcfbc"/><polyline points="519.78 128.47 509.14 139.05 487.87 117.89 509.14 96.61 519.97 107.25" style="fill:none;stroke:#000;stroke-linecap:round;stroke-linejoin:round;stroke-width:4.45588036199565px"/><line x1="530.42" y1="139.16" x2="541.06" y2="139.05" style="fill:none;stroke:#000;stroke-linecap:round;stroke-linejoin:round;stroke-width:4.45588036199565px"/><g style="isolation:isolate"><text transform="translate(40.84 650.67)" style="isolation:isolate;font-size:38.51459884643555px;font-family:Montserrat-Black, Montserrat"><a href="https://www.eventbrite.com/e/color-coded-design-your-power-tickets-31601630327" class="desktop-schedule-link" target="_blank">REGISTER</a></text></g><rect x="40.07" y="656.13" width="218.96" height="8.17" style="fill:#fff" class="desktop-schedule-link"/><text transform="translate(40.07 369.29)" style="font-size:25.12997055053711px;font-family:Montserrat-Black, Montserrat">SUN<tspan x="55.22" y="0" style="letter-spacing:-0.020013142732841393em">D</tspan><tspan x="73.78" y="0" style="letter-spacing:-0.06003942819852418em">A</tspan><tspan x="92.35" y="0">Y </tspan><tspan x="115.66" y="0" style="font-size:20.042659759521484px;font-family:Montserrat-Light, Montserrat;letter-spacing:-0.00004872419687392405em">02/19</tspan></text><text transform="translate(56.28 422.32)" style="font-size:19.359899520874023px;font-family:Montserrat-Black, Montserrat">CSS CLAS<tspan x="96" y="0" style="letter-spacing:-0.020025688257420102em">S</tspan><tspan x="0" y="23.23">BEG / INT</tspan></text><text transform="translate(40.07 396.89)" style="font-size:17.014419555664062px;font-family:Montserrat-Light, Montserrat">10am</text><text transform="translate(56.28 499.62)" style="font-size:19.359899520874023px;font-family:Montserrat-Black, Montserrat"><tspan style="letter-spacing:-0.009785852700099495em">C</tspan><tspan x="13.13" y="0">ODE </tspan><tspan x="60.71" y="0" style="letter-spacing:-0.009785852700099495em">Y</tspan><tspan x="74.43" y="0">OUR POSTER</tspan></text><text transform="translate(40.07 474.19)" style="font-size:17.014419555664062px;font-family:Montserrat-Light, Montserrat">12am</text><text transform="translate(56.28 555.11)" style="font-size:19.359899520874023px;font-family:Montserrat-Black, Montserrat">CLOSING REMARKS</text><text transform="translate(40.07 529.68)" style="font-size:17.014419555664062px;font-family:Montserrat-Light, Montserrat">3pm</text><rect x="40.84" y="370.22" width="218.96" height="8.17" style="fill:#fff"/><text transform="translate(40.07 97.24)" style="font-size:25.24942970275879px;font-family:Montserrat-Black, Montserrat">S<tspan x="16.75" y="0" style="letter-spacing:-0.08006059537967028em">A</tspan><tspan x="34.9" y="0" style="letter-spacing:-0.00003867661612544458em">TUR</tspan><tspan x="88.39" y="0" style="letter-spacing:-0.020034487152980295em">D</tspan><tspan x="107.04" y="0" style="letter-spacing:-0.06006478484281544em">A</tspan><tspan x="125.69" y="0">Y </tspan><tspan x="149.12" y="0" style="font-size:20.137939453125px;font-family:Montserrat-Light, Montserrat;letter-spacing:-0.00004849366551494211em">02/18</tspan></text><text transform="translate(56.35 151.62)" style="font-size:19.451929092407227px;font-family:Montserrat-Black, Montserrat">KICK-OFF</text><text transform="translate(40.07 126.07)" style="font-size:17.095300674438477px;font-family:Montserrat-Light, Montserrat">10am</text><text transform="translate(56.35 210.1)" style="font-size:19.451929092407227px;font-family:Montserrat-Black, Montserrat">POSTER DESIGN</text><text transform="translate(40.07 184.55)" style="font-size:17.095300674438477px;font-family:Montserrat-Light, Montserrat">11am</text><text transform="translate(56.35 263.71)" style="font-size:19.451929092407227px;font-family:Montserrat-Black, Montserrat">PRESEN<tspan x="82.37" y="0" style="letter-spacing:-0.08007520385769826em">TA</tspan><tspan x="107.25" y="0">TIONS</tspan></text><text transform="translate(40.07 238.17)" style="font-size:17.095300674438477px;font-family:Montserrat-Light, Montserrat">3pm</text><rect x="40.84" y="98.22" width="218.96" height="8.17" style="fill:#fff"/></g></g></svg>