<svg xmlns="http://www.w3.org/2000/svg" viewBox="0 0 636.67 405.72"><title>Asset 19</title><g id="Layer_2" data-name="Layer 2"><g id="Layer_9" data-name="Layer 9"><rect width="636.67" height="405.72" style="fill:#ffcfbc;opacity:0.54"/><path d="M270.83,210.88" style="fill:none;stroke:#fff;stroke-miterlimit:10;stroke-width:14.0620481967926px"/><rect x="35.13" y="28.99" width="549.48" height="355.63" rx="5" ry="5" style="fill:#fff"/><rect x="54.64" y="16.81" width="549.48" height="355.63" rx="5" ry="5" style="fill:none;stroke:#231f20;stroke-miterlimit:10;stroke-width:5.644114258211662px"/><text transform="translate(95.44 286.06)" style="font-size:20.668861389160156px;font-family:Montserrat-Light, Montserrat">GENERAL <tspan x="105.01" y="0" style="letter-spacing:-0.007843169100984863em">A</tspan><tspan x="119.68" y="0">SSEMBLY </tspan><tspan x="221.47" y="0" style="letter-spacing:-0.017103778400942894em">D</tspan><tspan x="237.42" y="0" style="letter-spacing:0.000047248006632438934em">C</tspan></text><g id="Layer_2-2" data-name="Layer 2"><g id="Layer_7" data-name="Layer 7"><path d="M73.51,275.1a7.42,7.42,0,0,1,14.78,0c0,3.7-7.39,10.35-7.39,10.35S73.51,278.8,73.51,275.1Z"/></g></g><g id="Layer_2-3" data-name="Layer 2"><g id="Layer_7-2" data-name="Layer 7"><path d="M74.39,274.36a7.42,7.42,0,0,1,14.78,0c0,3.7-7.39,10.35-7.39,10.35S74.39,278.06,74.39,274.36Z" style="fill:#4ecdc4"/></g></g><ellipse cx="81.78" cy="273.48" rx="3.7" ry="3.4" style="fill:#fff"/><path d="M90,329c0,5-3.25,9-8.21,9-6,0-9-4-9-9s4-8.21,9-8.21A8.47,8.47,0,0,1,90,329Z"/><circle cx="81.78" cy="328.96" r="8.21" style="fill:#4ecdc4"/><circle cx="81.78" cy="328.96" r="6.03" style="fill:#fff"/><line x1="81.78" y1="324.66" x2="81.78" y2="328.96" style="fill:none;stroke:#000;stroke-linecap:round;stroke-miterlimit:10;stroke-width:0.6459018515773692px"/><line x1="84.24" y1="331.08" x2="81.78" y2="328.96" style="fill:none;stroke:#000;stroke-linecap:round;stroke-miterlimit:10;stroke-width:0.6459018515773692px"/><text transform="translate(95.44 337.16)" style="font-size:20.668861389160156px;font-family:Montserrat-Light, Montserrat">10AM - 4PM B<tspan x="139.72" y="0" style="letter-spacing:-0.00878812923363364em">O</tspan><tspan x="156.34" y="0">TH </tspan><tspan x="189.94" y="0" style="letter-spacing:-0.017103778400942894em">D</tspan><tspan x="205.88" y="0" style="letter-spacing:-0.045877814440098204em">A</tspan><tspan x="219.77" y="0">YS</tspan></text><rect x="74.39" y="298.08" width="15.6" height="13.06" rx="1.87" ry="1.87"/><rect x="75.21" y="297.44" width="15.6" height="13.06" rx="1.87" ry="1.87" style="fill:#4ecdc4"/><path d="M75.21,301.59h15.6a0,0,0,0,1,0,0v7a1.87,1.87,0,0,1-1.87,1.87H77.08a1.87,1.87,0,0,1-1.87-1.87v-7A0,0,0,0,1,75.21,301.59Z" style="fill:#fff"/><text transform="translate(78.96 300.98)" style="font-size:4.051630973815918px;fill:#fff;font-family:Montserrat-Black, Montserrat">FEB</text><text transform="translate(76.25 307.34)" style="font-size:5.175550937652588px;fill:#231f20;font-family:Montserrat-Light, Montserrat">18 -19</text><text transform="translate(95.44 310.5)" style="font-size:20.668861389160156px;font-family:Montserrat-Light, Montserrat">FEB 18TH - 19TH</text><text transform="translate(71.1 131.47)" style="font-size:43.739891052246094px;font-family:Montserrat-Black, Montserrat">DESIGN <tspan x="182.46" y="0" style="letter-spacing:-0.009779045276749389em">Y</tspan><tspan x="213.47" y="0">OUR P</tspan><tspan x="352.2" y="0" style="letter-spacing:-0.00975671868935955em">O</tspan><tspan x="386.76" y="0" style="letter-spacing:-0.000022326587389838788em">WER</tspan></text><text transform="translate(73.7 174.47)" style="font-size:39.16144561767578px;font-family:Montserrat-Black, Montserrat">a design &amp; css <tspan x="287.61" y="0" style="letter-spacing:-0.015136658725193937em">w</tspan><tspan x="325.26" y="0">or</tspan><tspan x="368.52" y="0" style="letter-spacing:-0.02002427834650862em">k</tspan><tspan x="393.64" y="0">shop</tspan></text><text transform="translate(72.43 214.26)" style="font-size:31.299922943115234px;font-family:Montserrat-Light, Montserrat">IN <tspan x="42.59" y="0" style="letter-spacing:-0.03903139601079184em">P</tspan><tspan x="62.31" y="0">ARTNERSHIP WITH </tspan><tspan x="367.18" y="0" style="font-family:Montserrat-Bold, Montserrat;font-weight:700">AI</tspan><tspan x="400.76" y="0" style="font-family:Montserrat-Bold, Montserrat;font-weight:700;letter-spacing:-0.005959229926507787em">G</tspan><tspan x="424.05" y="0" style="font-family:Montserrat-Bold, Montserrat;font-weight:700">A DC</tspan></text><g style="isolation:isolate"><text transform="translate(73.46 87.5)" style="isolation:isolate;font-size:36.44383239746094px;font-family:Montserrat-Light, Montserrat;letter-spacing:-0.017096085510573473em">C<tspan x="24.88" y="0" style="letter-spacing:0.00002679637227362613em">OLOR </tspan><tspan x="139.28" y="0">C</tspan><tspan x="164.16" y="0" xml:space="preserve" style="letter-spacing:0.00002679637227362613em">ODED   PRESENTS</tspan></text><text transform="translate(428.23 89.36)" style="isolation:isolate;font-size:31.299922943115234px;font-family:Montserrat-Light, Montserrat"> </text></g><path d="M356,58.64V68.1l8.39-4.73Z" style="fill:#4ecdc4"/><path d="M364.94,52.86v9.46l-8.39-4.73Z" style="fill:#4ecdc4"/><path d="M346,52.86v9.46l8.37-4.73Z" style="fill:#4ecdc4"/><path d="M354.87,58.64v9.44l-8.37-4.71Z" style="fill:#4ecdc4"/><g style="opacity:0.8"><path d="M553.09,306.25c3.05-.07,5.89,1.59,6,5.48.05,1.5.12,3.42.17,5.74-.06,0-6.6-1.08-10.5-.34-.22-2.38-.36-4.46-.35-5.32C548.45,309.54,549.71,306.33,553.09,306.25Z" style="fill:#70350d;stroke:#fff;stroke-miterlimit:10;stroke-width:2.1906296292154166px"/><path d="M538.06,307.34c3-.34,6,1.07,6.48,4.94.17,1.4.41,3.49.64,5.66a5.6,5.6,0,0,0-3.17,4.65c-.38,3.23.15,5.8,2.12,7.58-.65.56-.72.78-1.57,1a4.44,4.44,0,0,1-5.22-2.79c-1.06-2.51-2.74-12.91-3.12-15.34C533.88,310.76,534.69,307.72,538.06,307.34Z" style="fill:#70350d;stroke:#fff;stroke-miterlimit:10;stroke-width:2.1906296292154166px"/><path d="M523.79,312.09c2.81-.6,5.72.44,6.53,4s2.55,12,2.83,13.35c.53,2.56-1.15,3.88-2.9,4.46a4.53,4.53,0,0,1-5.41-2.19c-1.23-2.24-4.11-11.25-4.49-13.35S520.69,312.75,523.79,312.09Z" style="fill:#70350d;stroke:#fff;stroke-miterlimit:10;stroke-width:2.1906296292154166px"/><path d="M513,336.27a58.27,58.27,0,0,1-4.2-10.15c-.49-1.89-.15-5.82,2.66-6.65,2.53-.74,5.27,0,6.25,3.21s2.78,9.23,3.13,10.45c.66,2.31-.78,3.63-2.34,4.28S514.31,338.24,513,336.27Z" style="fill:#70350d;stroke:#fff;stroke-miterlimit:10;stroke-width:2.1906296292154166px"/><path d="M546.43,358c-16.76,2.58-26.41-4.44-30.41-11.68-.91-1.64-1.5-4.44-.11-4.92,1.11-.38,4.11.53,5.76.05a7,7,0,0,0,3.95-3.84c.8.64,4.59,1.81,6.77,1.23s5-3.47,5-3.47c1.39,1.27,4.64.64,3.89,1.65s-4.21,7.31-2.4,8.11,2.67-2,5.87-4.16,9.23-3.63,9.23-3.63a21.41,21.41,0,0,1,1-5.81c-2,.32-10.46-1.55-9.71-7.41s10.77-3.09,14.35-3c3.14,0,7.8,2.24,8.85,6.31C571.09,337.47,566.95,354.82,546.43,358Z" style="fill:#70350d;stroke:#fff;stroke-miterlimit:10;stroke-width:2.1906296292154166px"/><path d="M573.83,326.19c-1.08-4.23-4.7-7.22-8-8.5a3.27,3.27,0,0,1-1.55-2.34,62.36,62.36,0,0,0-.89-6.39,10.23,10.23,0,0,0-9.7-7.71,9.82,9.82,0,0,0-7.28,2.59c-.64.66-1.29.82-1.93.4a10.07,10.07,0,0,0-7.5-1.63,9.74,9.74,0,0,0-6.22,4.51,1.7,1.7,0,0,1-2,.81,12.47,12.47,0,0,0-7.78.16,8.59,8.59,0,0,0-4.91,5.41,1.52,1.52,0,0,1-1.59,1.1,10.15,10.15,0,0,0-5.17,1c-3.79,2-5.27,6.72-4.91,11.25.38,4.85,2,8.54,4.45,16.34,3,9.54,14.28,23.18,38.7,19.42S576.91,338.18,573.83,326.19Zm-20.74-19.93c3.05-.07,5.89,1.59,6,5.48.05,1.5.12,3.42.17,5.74-.06,0-6.6-1.08-10.5-.34-.22-2.38-.36-4.46-.35-5.32C548.45,309.54,549.71,306.33,553.09,306.25Zm-15,1.09c3-.34,6,1.07,6.48,4.94.17,1.4.41,3.49.64,5.66a5.6,5.6,0,0,0-3.17,4.65c-.38,3.23.15,5.8,2.12,7.58-.65.56-.72.78-1.57,1a4.44,4.44,0,0,1-5.22-2.79c-1.06-2.51-2.74-12.91-3.12-15.34C533.88,310.76,534.69,307.72,538.06,307.34Zm-14.27,4.75c2.81-.6,5.72.44,6.53,4s2.55,12,2.83,13.35c.53,2.56-1.15,3.88-2.9,4.46a4.53,4.53,0,0,1-5.41-2.19c-1.23-2.24-4.11-11.25-4.49-13.35S520.69,312.75,523.79,312.09ZM513,336.27a58.27,58.27,0,0,1-4.2-10.15c-.49-1.89-.15-5.82,2.66-6.65,2.53-.74,5.27,0,6.25,3.21s2.78,9.23,3.13,10.45c.66,2.31-.78,3.63-2.34,4.28S514.31,338.24,513,336.27ZM546.43,358c-16.76,2.58-26.41-4.44-30.41-11.68-.91-1.64-1.5-4.44-.11-4.92,1.11-.38,4.11.53,5.76.05a7,7,0,0,0,3.95-3.84c.8.64,4.59,1.81,6.77,1.23s5-3.47,5-3.47c1.39,1.27,4.64.64,3.89,1.65s-4.21,7.31-2.4,8.11,2.67-2,5.87-4.16,9.23-3.63,9.23-3.63a21.41,21.41,0,0,1,1-5.81c-2,.32-10.46-1.55-9.71-7.41s10.77-3.09,14.35-3c3.14,0,7.8,2.24,8.85,6.31C571.09,337.47,566.95,354.82,546.43,358Z" style="fill:#231f20;stroke:#fff;stroke-miterlimit:10;stroke-width:2.1906296292154166px"/><rect x="515.04" y="331.02" width="4.38" height="8.04" rx="1" ry="1" transform="translate(-84.11 200.24) rotate(-20.3)" style="fill:#742cff"/><rect x="527.05" y="327.07" width="4.38" height="8.04" rx="1" ry="1" transform="translate(-75.87 177.61) rotate(-17.8)" style="fill:#742cff"/><path d="M540.81,325.18a8.71,8.71,0,0,0,.53,2.79c.44,1.68,1.71,2.35,2.45,3,.3.1-.19,1.06-1,1.35a1.69,1.69,0,0,1-2-1.06,15.8,15.8,0,0,1-1-3.19C539.6,327.25,539.53,325.32,540.81,325.18Z" style="fill:#742cff"/><rect x="547.92" y="319.25" width="2.8" height="8.04" rx="0.64" ry="0.64" transform="translate(182.51 844.52) rotate(-85.34)" style="fill:#742cff"/></g><g style="opacity:0.8"><path d="M458.9,306.25c3.05-.07,5.89,1.59,6,5.48.05,1.5.12,3.42.17,5.74-.06,0-6.6-1.08-10.5-.34-.22-2.38-.36-4.46-.35-5.32C454.26,309.54,455.53,306.33,458.9,306.25Z" style="fill:#af571c;stroke:#fff;stroke-miterlimit:10;stroke-width:2.1906296292154166px"/><path d="M443.88,307.34c3-.34,6,1.07,6.48,4.94.17,1.4.41,3.49.64,5.66a5.6,5.6,0,0,0-3.17,4.65c-.38,3.23.15,5.8,2.12,7.58-.65.56-.72.78-1.57,1a4.44,4.44,0,0,1-5.22-2.79c-1.06-2.51-2.74-12.91-3.12-15.34C439.7,310.76,440.51,307.72,443.88,307.34Z" style="fill:#af571c;stroke:#fff;stroke-miterlimit:10;stroke-width:2.1906296292154166px"/><path d="M429.61,312.09c2.81-.6,5.72.44,6.53,4s2.55,12,2.83,13.35c.53,2.56-1.15,3.88-2.9,4.46a4.53,4.53,0,0,1-5.41-2.19c-1.23-2.24-4.11-11.25-4.49-13.35S426.51,312.75,429.61,312.09Z" style="fill:#af571c;stroke:#fff;stroke-miterlimit:10;stroke-width:2.1906296292154166px"/><path d="M418.85,336.27a58.27,58.27,0,0,1-4.2-10.15c-.49-1.89-.15-5.82,2.66-6.65,2.53-.74,5.27,0,6.25,3.21s2.78,9.23,3.13,10.45c.66,2.31-.78,3.63-2.34,4.28S420.13,338.24,418.85,336.27Z" style="fill:#af571c;stroke:#fff;stroke-miterlimit:10;stroke-width:2.1906296292154166px"/><path d="M452.24,358c-16.76,2.58-26.41-4.44-30.41-11.68-.91-1.64-1.5-4.44-.11-4.92,1.11-.38,4.11.53,5.76.05a7,7,0,0,0,3.95-3.84c.8.64,4.59,1.81,6.77,1.23s5-3.47,5-3.47c1.39,1.27,4.64.64,3.89,1.65s-4.21,7.31-2.4,8.11,2.67-2,5.87-4.16,9.23-3.63,9.23-3.63a21.41,21.41,0,0,1,1-5.81c-2,.32-10.46-1.55-9.71-7.41s10.77-3.09,14.35-3c3.14,0,7.8,2.24,8.85,6.31C476.91,337.47,472.76,354.82,452.24,358Z" style="fill:#af571c;stroke:#fff;stroke-miterlimit:10;stroke-width:2.1906296292154166px"/><path d="M479.65,326.19c-1.08-4.23-4.7-7.22-8-8.5a3.27,3.27,0,0,1-1.55-2.34,62.36,62.36,0,0,0-.89-6.39,10.23,10.23,0,0,0-9.7-7.71,9.82,9.82,0,0,0-7.28,2.59c-.64.66-1.29.82-1.93.4a10.07,10.07,0,0,0-7.5-1.63,9.74,9.74,0,0,0-6.22,4.51,1.7,1.7,0,0,1-2,.81,12.47,12.47,0,0,0-7.78.16,8.59,8.59,0,0,0-4.91,5.41,1.52,1.52,0,0,1-1.59,1.1,10.15,10.15,0,0,0-5.17,1c-3.79,2-5.27,6.72-4.91,11.25.38,4.85,2,8.54,4.45,16.34,3,9.54,14.28,23.18,38.7,19.42S482.73,338.18,479.65,326.19ZM458.9,306.25c3.05-.07,5.89,1.59,6,5.48.05,1.5.12,3.42.17,5.74-.06,0-6.6-1.08-10.5-.34-.22-2.38-.36-4.46-.35-5.32C454.26,309.54,455.53,306.33,458.9,306.25Zm-15,1.09c3-.34,6,1.07,6.48,4.94.17,1.4.41,3.49.64,5.66a5.6,5.6,0,0,0-3.17,4.65c-.38,3.23.15,5.8,2.12,7.58-.65.56-.72.78-1.57,1a4.44,4.44,0,0,1-5.22-2.79c-1.06-2.51-2.74-12.91-3.12-15.34C439.7,310.76,440.51,307.72,443.88,307.34Zm-14.27,4.75c2.81-.6,5.72.44,6.53,4s2.55,12,2.83,13.35c.53,2.56-1.15,3.88-2.9,4.46a4.53,4.53,0,0,1-5.41-2.19c-1.23-2.24-4.11-11.25-4.49-13.35S426.51,312.75,429.61,312.09Zm-10.75,24.18a58.27,58.27,0,0,1-4.2-10.15c-.49-1.89-.15-5.82,2.66-6.65,2.53-.74,5.27,0,6.25,3.21s2.78,9.23,3.13,10.45c.66,2.31-.78,3.63-2.34,4.28S420.13,338.24,418.85,336.27ZM452.24,358c-16.76,2.58-26.41-4.44-30.41-11.68-.91-1.64-1.5-4.44-.11-4.92,1.11-.38,4.11.53,5.76.05a7,7,0,0,0,3.95-3.84c.8.64,4.59,1.81,6.77,1.23s5-3.47,5-3.47c1.39,1.27,4.64.64,3.89,1.65s-4.21,7.31-2.4,8.11,2.67-2,5.87-4.16,9.23-3.63,9.23-3.63a21.41,21.41,0,0,1,1-5.81c-2,.32-10.46-1.55-9.71-7.41s10.77-3.09,14.35-3c3.14,0,7.8,2.24,8.85,6.31C476.91,337.47,472.76,354.82,452.24,358Z" style="fill:#231f20;stroke:#fff;stroke-miterlimit:10;stroke-width:2.1906296292154166px"/></g><g style="opacity:0.8"><path d="M517.94,234.61c3.05-.07,5.89,1.59,6,5.48.05,1.5.12,3.42.17,5.74-.06,0-6.6-1.08-10.5-.34-.22-2.38-.36-4.46-.35-5.32C513.3,237.9,514.56,234.69,517.94,234.61Z" style="fill:#ce9167;stroke:#fff;stroke-miterlimit:10;stroke-width:2.1906296292154166px"/><path d="M502.91,235.7c3-.34,6,1.07,6.48,4.94.17,1.4.41,3.49.64,5.66a5.6,5.6,0,0,0-3.17,4.65c-.38,3.23.15,5.8,2.12,7.58-.65.56-.72.78-1.57,1a4.44,4.44,0,0,1-5.22-2.79c-1.06-2.51-2.74-12.91-3.12-15.34C498.73,239.12,499.55,236.08,502.91,235.7Z" style="fill:#ce9167;stroke:#fff;stroke-miterlimit:10;stroke-width:2.1906296292154166px"/><path d="M488.64,240.45c2.81-.6,5.72.44,6.53,4s2.55,12,2.83,13.35c.53,2.56-1.15,3.88-2.9,4.46a4.53,4.53,0,0,1-5.41-2.19c-1.23-2.24-4.11-11.25-4.49-13.35S485.54,241.11,488.64,240.45Z" style="fill:#ce9167;stroke:#fff;stroke-miterlimit:10;stroke-width:2.1906296292154166px"/><path d="M477.89,264.63a58.27,58.27,0,0,1-4.2-10.15c-.49-1.89-.15-5.82,2.66-6.65,2.53-.74,5.27,0,6.25,3.21s2.78,9.23,3.13,10.45c.66,2.31-.78,3.63-2.34,4.28S479.17,266.6,477.89,264.63Z" style="fill:#ce9167;stroke:#fff;stroke-miterlimit:10;stroke-width:2.1906296292154166px"/><path d="M511.28,286.33c-16.76,2.58-26.41-4.44-30.41-11.68-.91-1.64-1.5-4.44-.11-4.92,1.11-.38,4.11.53,5.76.05a7,7,0,0,0,3.95-3.84c.8.64,4.59,1.81,6.77,1.23s5-3.47,5-3.47c1.39,1.27,4.64.64,3.89,1.65s-4.21,7.31-2.4,8.11,2.67-2,5.87-4.16,9.23-3.63,9.23-3.63a21.41,21.41,0,0,1,1-5.81c-2,.32-10.46-1.55-9.71-7.41s10.77-3.09,14.35-3c3.14,0,7.8,2.24,8.85,6.31C535.94,265.83,531.8,283.18,511.28,286.33Z" style="fill:#ce9167;stroke:#fff;stroke-miterlimit:10;stroke-width:2.1906296292154166px"/><path d="M538.68,254.54c-1.08-4.23-4.7-7.22-8-8.5a3.27,3.27,0,0,1-1.55-2.34,62.36,62.36,0,0,0-.89-6.39,10.23,10.23,0,0,0-9.7-7.71,9.82,9.82,0,0,0-7.28,2.59c-.64.66-1.29.82-1.93.4a10.07,10.07,0,0,0-7.5-1.63,9.74,9.74,0,0,0-6.22,4.51,1.7,1.7,0,0,1-2,.81,12.47,12.47,0,0,0-7.78.16,8.59,8.59,0,0,0-4.91,5.41,1.52,1.52,0,0,1-1.59,1.1,10.15,10.15,0,0,0-5.17,1c-3.79,2-5.27,6.72-4.91,11.25.38,4.85,2,8.54,4.45,16.34,3,9.54,14.28,23.18,38.7,19.42S541.76,266.53,538.68,254.54Zm-20.74-19.93c3.05-.07,5.89,1.59,6,5.48.05,1.5.12,3.42.17,5.74-.06,0-6.6-1.08-10.5-.34-.22-2.38-.36-4.46-.35-5.32C513.3,237.9,514.56,234.69,517.94,234.61Zm-15,1.09c3-.34,6,1.07,6.48,4.94.17,1.4.41,3.49.64,5.66a5.6,5.6,0,0,0-3.17,4.65c-.38,3.23.15,5.8,2.12,7.58-.65.56-.72.78-1.57,1a4.44,4.44,0,0,1-5.22-2.79c-1.06-2.51-2.74-12.91-3.12-15.34C498.73,239.12,499.55,236.08,502.91,235.7Zm-14.27,4.75c2.81-.6,5.72.44,6.53,4s2.55,12,2.83,13.35c.53,2.56-1.15,3.88-2.9,4.46a4.53,4.53,0,0,1-5.41-2.19c-1.23-2.24-4.11-11.25-4.49-13.35S485.54,241.11,488.64,240.45Zm-10.75,24.18a58.27,58.27,0,0,1-4.2-10.15c-.49-1.89-.15-5.82,2.66-6.65,2.53-.74,5.27,0,6.25,3.21s2.78,9.23,3.13,10.45c.66,2.31-.78,3.63-2.34,4.28S479.17,266.6,477.89,264.63Zm33.39,21.71c-16.76,2.58-26.41-4.44-30.41-11.68-.91-1.64-1.5-4.44-.11-4.92,1.11-.38,4.11.53,5.76.05a7,7,0,0,0,3.95-3.84c.8.64,4.59,1.81,6.77,1.23s5-3.47,5-3.47c1.39,1.27,4.64.64,3.89,1.65s-4.21,7.31-2.4,8.11,2.67-2,5.87-4.16,9.23-3.63,9.23-3.63a21.41,21.41,0,0,1,1-5.81c-2,.32-10.46-1.55-9.71-7.41s10.77-3.09,14.35-3c3.14,0,7.8,2.24,8.85,6.31C535.94,265.83,531.8,283.18,511.28,286.33Z" style="fill:#231f20;stroke:#fff;stroke-miterlimit:10;stroke-width:2.1906296292154166px"/><rect x="479.86" y="258.36" width="4.38" height="8.04" rx="1" ry="1" transform="translate(-61.09 183.52) rotate(-20.3)" style="fill:#36d0ff"/><rect x="491.86" y="254.41" width="4.38" height="8.04" rx="1" ry="1" transform="translate(-55.34 163.38) rotate(-17.8)" style="fill:#36d0ff"/><path d="M505.63,252.51a8.71,8.71,0,0,0,.53,2.79c.44,1.68,1.71,2.35,2.45,3,.3.1-.19,1.06-1,1.35a1.69,1.69,0,0,1-2-1.06,15.8,15.8,0,0,1-1-3.19C504.41,254.58,504.35,252.66,505.63,252.51Z" style="fill:#36d0ff"/><rect x="512.74" y="246.58" width="2.8" height="8.04" rx="0.64" ry="0.64" transform="translate(222.61 742.69) rotate(-85.34)" style="fill:#36d0ff"/></g><g style="opacity:0.8"><path d="M423.75,234.61c3.05-.07,5.89,1.59,6,5.48.05,1.5.12,3.42.17,5.74-.06,0-6.6-1.08-10.5-.34-.22-2.38-.36-4.46-.35-5.32C419.12,237.9,420.38,234.69,423.75,234.61Z" style="fill:#3a1b06;stroke:#fff;stroke-miterlimit:10;stroke-width:2.1906296292154166px"/><path d="M408.73,235.7c3-.34,6,1.07,6.48,4.94.17,1.4.41,3.49.64,5.66a5.6,5.6,0,0,0-3.17,4.65c-.38,3.23.15,5.8,2.12,7.58-.65.56-.72.78-1.57,1A4.44,4.44,0,0,1,408,256.7c-1.06-2.51-2.74-12.91-3.12-15.34C404.55,239.12,405.36,236.08,408.73,235.7Z" style="fill:#3a1b06;stroke:#fff;stroke-miterlimit:10;stroke-width:2.1906296292154166px"/><path d="M394.46,240.45c2.81-.6,5.72.44,6.53,4s2.55,12,2.83,13.35c.53,2.56-1.15,3.88-2.9,4.46a4.53,4.53,0,0,1-5.41-2.19c-1.23-2.24-4.11-11.25-4.49-13.35S391.36,241.11,394.46,240.45Z" style="fill:#3a1b06;stroke:#fff;stroke-miterlimit:10;stroke-width:2.1906296292154166px"/><path d="M383.7,264.63a58.27,58.27,0,0,1-4.2-10.15c-.49-1.89-.15-5.82,2.66-6.65,2.53-.74,5.27,0,6.25,3.21s2.78,9.23,3.13,10.45c.66,2.31-.78,3.63-2.34,4.28S385,266.6,383.7,264.63Z" style="fill:#3a1b06;stroke:#fff;stroke-miterlimit:10;stroke-width:2.1906296292154166px"/><path d="M417.09,286.33c-16.76,2.58-26.41-4.44-30.41-11.68-.91-1.64-1.5-4.44-.11-4.92,1.11-.38,4.11.53,5.76.05a7,7,0,0,0,3.95-3.84c.8.64,4.59,1.81,6.77,1.23s5-3.47,5-3.47c1.39,1.27,4.64.64,3.89,1.65s-4.21,7.31-2.4,8.11,2.67-2,5.87-4.16,9.23-3.63,9.23-3.63a21.41,21.41,0,0,1,1-5.81c-2,.32-10.46-1.55-9.71-7.41s10.77-3.09,14.35-3c3.14,0,7.8,2.24,8.85,6.31C441.76,265.83,437.61,283.18,417.09,286.33Z" style="fill:#3a1b06;stroke:#fff;stroke-miterlimit:10;stroke-width:2.1906296292154166px"/><path d="M444.5,254.54c-1.08-4.23-4.7-7.22-8-8.5a3.27,3.27,0,0,1-1.55-2.34,62.36,62.36,0,0,0-.89-6.39,10.23,10.23,0,0,0-9.7-7.71,9.82,9.82,0,0,0-7.28,2.59c-.64.66-1.29.82-1.93.4a10.07,10.07,0,0,0-7.5-1.63,9.74,9.74,0,0,0-6.22,4.51,1.7,1.7,0,0,1-2,.81,12.47,12.47,0,0,0-7.78.16,8.59,8.59,0,0,0-4.91,5.41,1.52,1.52,0,0,1-1.59,1.1,10.15,10.15,0,0,0-5.17,1c-3.79,2-5.27,6.72-4.91,11.25.38,4.85,2,8.54,4.45,16.34,3,9.54,14.28,23.18,38.7,19.42S447.58,266.53,444.5,254.54Zm-20.74-19.93c3.05-.07,5.89,1.59,6,5.48.05,1.5.12,3.42.17,5.74-.06,0-6.6-1.08-10.5-.34-.22-2.38-.36-4.46-.35-5.32C419.12,237.9,420.38,234.69,423.75,234.61Zm-15,1.09c3-.34,6,1.07,6.48,4.94.17,1.4.41,3.49.64,5.66a5.6,5.6,0,0,0-3.17,4.65c-.38,3.23.15,5.8,2.12,7.58-.65.56-.72.78-1.57,1A4.44,4.44,0,0,1,408,256.7c-1.06-2.51-2.74-12.91-3.12-15.34C404.55,239.12,405.36,236.08,408.73,235.7Zm-14.27,4.75c2.81-.6,5.72.44,6.53,4s2.55,12,2.83,13.35c.53,2.56-1.15,3.88-2.9,4.46a4.53,4.53,0,0,1-5.41-2.19c-1.23-2.24-4.11-11.25-4.49-13.35S391.36,241.11,394.46,240.45ZM383.7,264.63a58.27,58.27,0,0,1-4.2-10.15c-.49-1.89-.15-5.82,2.66-6.65,2.53-.74,5.27,0,6.25,3.21s2.78,9.23,3.13,10.45c.66,2.31-.78,3.63-2.34,4.28S385,266.6,383.7,264.63Zm33.39,21.71c-16.76,2.58-26.41-4.44-30.41-11.68-.91-1.64-1.5-4.44-.11-4.92,1.11-.38,4.11.53,5.76.05a7,7,0,0,0,3.95-3.84c.8.64,4.59,1.81,6.77,1.23s5-3.47,5-3.47c1.39,1.27,4.64.64,3.89,1.65s-4.21,7.31-2.4,8.11,2.67-2,5.87-4.16,9.23-3.63,9.23-3.63a21.41,21.41,0,0,1,1-5.81c-2,.32-10.46-1.55-9.71-7.41s10.77-3.09,14.35-3c3.14,0,7.8,2.24,8.85,6.31C441.76,265.83,437.61,283.18,417.09,286.33Z" style="fill:#231f20;stroke:#fff;stroke-miterlimit:10;stroke-width:2.1906296292154166px"/><rect x="385.65" y="259.1" width="4.38" height="8.04" rx="1" ry="1" transform="translate(-67.19 150.88) rotate(-20.3)" style="fill:#ef4b6b"/><rect x="397.65" y="255.15" width="4.38" height="8.04" rx="1" ry="1" transform="translate(-60.08 134.62) rotate(-17.8)" style="fill:#ef4b6b"/><path d="M411.41,253.26a8.71,8.71,0,0,0,.53,2.79c.44,1.68,1.71,2.35,2.45,3,.3.1-.19,1.06-1,1.35a1.69,1.69,0,0,1-2-1.06,15.8,15.8,0,0,1-1-3.19C410.2,255.33,410.14,253.4,411.41,253.26Z" style="fill:#ef4b6b"/><rect x="418.52" y="247.33" width="2.8" height="8.04" rx="0.64" ry="0.64" transform="translate(135.31 649.47) rotate(-85.34)" style="fill:#ef4b6b"/></g></g></g></svg>