<?xml version="1.0" encoding="utf-8"?>
<!-- Generator: Adobe Illustrator 20.1.0, SVG Export Plug-In . SVG Version: 6.00 Build 0)  -->
<svg version="1.1" id="Layer_1" xmlns="http://www.w3.org/2000/svg" xmlns:xlink="http://www.w3.org/1999/xlink" x="0px" y="0px"
	 viewBox="0 0 1768.9 1357.5" xml:space="preserve">
<style type="text/css">
	.st0{fill:none;stroke:#FFCFBC;stroke-width:194.8722;stroke-miterlimit:10;}
	.st1{fill:none;stroke:#000000;stroke-width:129.9148;stroke-miterlimit:10;}
</style>
<title>Asset 2</title>
<g id="Layer_2">
	<g id="Layer_1-2">
		<path class="st0" d="M991.2,483.1c-210.9-10.6-407.4-110.2-540.7-274c-69.6,119.8-34,273.1,81.2,350.1
			c-41.7-1.3-82.4-12.5-118.9-32.8v3.4c-0.1,124.9,87.9,232.5,210.4,257.3c-38.7,10.6-79.2,12.1-118.6,4.5
			C539,898.5,637.5,971.7,749.8,973.8c-110.1,85.9-249.6,124.9-388.3,108.4c119.8,77.1,341.8,139.4,486.7,59.2"/>
		<path class="st1" d="M788,1179.5c444.4,0,687.6-368.2,687.6-687.6c0-10.4-0.2-20.9-0.7-31.2c47.3-34.2,88.1-76.6,120.6-125.1
			c-37.2,16.5-101.3,44-141.4,49.9c-5.3,0.8-8.2-6.1-3.8-9.3c41.1-29.5,96.9-87.5,112.6-136.4c-47.4,28.2-99.3,48-153.4,58.7
			c-91.4-97.4-244.5-102.2-341.8-10.7C1004.6,346.8,978,435,997.6,519c-194.3-9.8-375.3-101.5-498.1-252.4
			c-64.2,110.4-31.4,251.7,74.8,322.6C536,588,498.4,577.6,464.9,559v3c-0.1,115.1,81,214.4,193.8,237.2
			c-35.6,9.7-72.9,11.2-109.1,4.1c31.6,98.4,122.3,165.9,225.7,167.9c-101.4,79.2-230.1,115-357.8,99.8
			C527.9,1141.9,656.5,1179.6,788,1179.5"/>
	</g>
</g>
</svg>
