<svg xmlns="http://www.w3.org/2000/svg" viewBox="0 0 1034.68 1034.68"><title>Asset 42</title><g id="Layer_2" data-name="Layer 2"><g id="Layer_14" data-name="Layer 14"><rect width="1034.68" height="1034.68" style="fill:#fff"/></g><g id="tagline"><text transform="translate(101.51 619.37)" style="font-size:53.28171157836914px;font-family:Avenir-Black, Avenir">EDUC<tspan x="149.99" y="0" style="letter-spacing:-0.09198967229667254em">A</tspan><tspan x="184.57" y="0">TIONAL PROGRAMMING</tspan><tspan x="158.86" y="63.94">MADE BY AND FOR</tspan><tspan x="164.35" y="127.88">PEOPLE OF COLOR</tspan></text><rect x="300.74" y="817.64" width="435.07" height="36.78" style="fill:#a3efe2;opacity:0.65"/><text transform="translate(300.74 861.99)" style="font-size:50.7146110534668px;font-family:Avenir-Book, Avenir">@wea<tspan x="131.7" y="0" style="letter-spacing:-0.017985139904521642em">r</tspan><tspan x="147.63" y="0">ecolo</tspan><tspan x="272.59" y="0" style="letter-spacing:-0.017985139904521642em">r</tspan><tspan x="288.51" y="0" style="letter-spacing:-0.000019256038441671992em">coded</tspan></text><rect x="503.4" y="242.89" width="369.85" height="69.27" style="fill:#ffcfbc"/><rect x="422.01" y="137.63" width="359.93" height="69.27" style="fill:#ffcfbc"/><rect x="211.98" y="243.82" width="64.95" height="188.17" rx="15.61" ry="15.61" transform="translate(-167.34 271.82) rotate(-45)" style="fill:#ffcfbc"/><polyline points="367.96 322.63 313.89 376.4 205.76 268.87 313.89 160.74 368.88 214.81" style="fill:none;stroke:#000;stroke-linecap:round;stroke-linejoin:round;stroke-width:35.35166867799249px"/><path d="M408.31,407c-7.37,0-13.47-5.61-13.47-14.7v-1.87c0-7,16.92-22.19,18.16-23.42.4-.4,1.9-.3,2.47-.3H480.9s6.48.66,6.55,9.75v6.19c-1.68,5.89-12.56,14.41-17.63,19a20.34,20.34,0,0,1-13.74,5.3H408.31Z" style="fill:#ffcfbc"/><line x1="422.01" y1="376.99" x2="476.07" y2="376.4" style="fill:none;stroke:#000;stroke-linecap:round;stroke-linejoin:round;stroke-width:26.93460470704186px"/><text transform="translate(422.01 224.98)" style="font-size:98.85183715820312px;font-family:Montserrat-Black, Montserrat"><tspan style="letter-spacing:-0.00976050397986896em">C<tspan x="67.04" y="0" style="letter-spacing:-0.000009879052611203402em">OLOR</tspan></tspan><tspan x="0" y="102.77" xml:space="preserve">    </tspan><tspan x="82.63" y="102.77" style="letter-spacing:-0.00976050397986896em">C</tspan><tspan x="149.68" y="102.77" style="letter-spacing:-0.000009879052611203402em">ODED</tspan></text></g></g></svg>