<svg xmlns="http://www.w3.org/2000/svg" viewBox="0 0 428.56 108.41"><title>Asset 2</title><g id="Layer_2" data-name="Layer 2"><g id="Layer_2-2" data-name="Layer 2"><ellipse cx="130.1" cy="37.91" rx="13.73" ry="19.15" style="fill:#c1621b;opacity:0.6900000000000001"/><path d="M153.55,27.6c0-3.57-3.29-6.47-7.36-6.47l-.58,0a9.6,9.6,0,0,0,.58-3.34c0-3.86-2.14-7-4.78-7l-.24,0c-1.19-2.76-3.4-4.62-5.94-4.62-2.69,0-5,2.09-6.15,5.13a10.92,10.92,0,0,0-3.39-.53c-4.76,0-8.68,3-9.22,6.81h-.07a7.46,7.46,0,0,0-7.72,7.17,6.74,6.74,0,0,0,1,3.56,6.92,6.92,0,0,0-3,5.93c0,3.7,2.55,6.7,5.7,6.7s5.7-3,5.7-6.7a7.7,7.7,0,0,0-.39-2.42A7.48,7.48,0,0,0,124,26.15a11.17,11.17,0,0,0,1.7.13,10.25,10.25,0,0,0,6.65-2.33,5.41,5.41,0,0,0,2.89.86,5.55,5.55,0,0,0,3.45-1.26,4.49,4.49,0,0,0,1.13.85,5.85,5.85,0,0,0-1,3.2,6.35,6.35,0,0,0,3.59,5.55,8.85,8.85,0,0,0-1,4.17c0,4.16,2.72,7.54,6.07,7.54s6.07-3.38,6.07-7.54a8.48,8.48,0,0,0-1.86-5.43A6,6,0,0,0,153.55,27.6Z" style="fill:#231f20"/><path d="M135.15,48.51a6.19,6.19,0,0,1-5,2.38c-2,0-4.31-1.14-5-2.38a5.44,5.44,0,0,1,2.72-1.27c.68-.11,1.82.44,2.33.44,1,0,1.71-.43,2.59-.46S135.15,48.51,135.15,48.51Z" style="fill:#4f034f;opacity:0.85"/><circle cx="123.44" cy="37.02" r="4.48" style="fill:#664b38;stroke:#cc9c25;stroke-miterlimit:10;opacity:0.9"/><circle cx="136.77" cy="37.02" r="4.48" style="fill:#664b38;stroke:#cc9c25;stroke-miterlimit:10;opacity:0.9"/><path d="M127.92,37h4.36" style="fill:none;stroke:#cc9c25;stroke-miterlimit:10"/><circle cx="123.44" cy="37.02" r="2.24" style="fill:#231f20"/><path d="M121.2,35c0,.54.3,1,.66,1" style="fill:none;stroke:#231f20;stroke-miterlimit:10"/><path d="M122,34.51c0,.54.3,1,.66,1" style="fill:none;stroke:#231f20;stroke-miterlimit:10"/><path d="M122.71,34.26c-.07.54.17,1,.54,1.06" style="fill:none;stroke:#231f20;stroke-miterlimit:10"/><circle cx="136.85" cy="37.02" r="2.24" style="fill:#231f20"/><path d="M139.09,35c0,.54-.3,1-.66,1" style="fill:none;stroke:#231f20;stroke-miterlimit:10"/><path d="M138.3,34.51c0,.54-.3,1-.66,1" style="fill:none;stroke:#231f20;stroke-miterlimit:10"/><path d="M137.57,34.26c.07.54-.17,1-.54,1.06" style="fill:none;stroke:#231f20;stroke-miterlimit:10"/><path d="M202.62,83c0,9.2-10.08,16.66-17.61,16.66-6.14,0-17.61-7.46-17.61-16.66s7.88-18.7,17.61-18.7S202.62,73.83,202.62,83Z" style="fill:#a55b29;opacity:0.89"/><path d="M172.3,79.24c.2,0,.36-2.39.36-5.34,3.7-3.56,20.9-3.93,25-.87v-.31c0,3,.05,5.49.25,5.49,2.48,0,4.43,1.44,4.72,3.31-.79-8.7-8.34-17.2-17.53-17.2-9.72,0-17.61,9.5-17.61,18.7C167.44,80.94,169.61,79.24,172.3,79.24Z" style="fill:#231f20;opacity:0.89"/><ellipse cx="178.13" cy="80.78" rx="2.46" ry="1.22" style="fill:#231f20"/><ellipse cx="192.9" cy="80.78" rx="2.46" ry="1.22" style="fill:#231f20"/><path d="M182.89,92.16c.23,1.72,3.37,1.75,4.24,0" style="fill:none;stroke:#231f20;stroke-miterlimit:10"/><path d="M313,83.15c0,8.35-8.82,20.27-15.87,20.27-6.35,0-16.09-11.92-16.09-20.27s7.15-17,16-17S313,74.81,313,83.15Z" style="fill:#421f08;opacity:0.86"/><ellipse cx="290.82" cy="81.12" rx="2.24" ry="1.11" style="fill:#231f20"/><ellipse cx="304.22" cy="81.12" rx="2.24" ry="1.11" style="fill:#231f20"/><path d="M313.61,65.37H280.4c.27,5.21.71,15.24.71,17.78,0-1.9,2-3.43,4.41-3.43.18,0,.32-2.17.32-4.84,3.36-3.23,19-3.56,22.65-.79V73.8c0,2.68,0,5,.22,5,2.25,0,4,1.31,4.28,3C312.81,79.63,313.27,70.57,313.61,65.37Z" style="fill:#231f20"/><path d="M313.94,60.58s-12,.43-16.88.43-16.87.43-16.87.43.09,1.61.21,3.94h33.2C313.79,62.6,313.94,60.58,313.94,60.58Z" style="fill:#e5b233;opacity:0.63"/><path d="M319.23,101.67" style="fill:none;stroke:#e5b233;stroke-miterlimit:10;opacity:0.63"/><path d="M295.33,88.32a.81.81,0,1,0,.81.81" style="fill:none;stroke:#e5b233;stroke-miterlimit:10;stroke-width:0.25px;opacity:0.9"/><path d="M295,88.64a5.32,5.32,0,0,0,2.09.74,4.6,4.6,0,0,0,2.32-.74" style="fill:none;stroke:#231f20;stroke-miterlimit:10;stroke-width:0.5px"/><path d="M295.08,94.87c.21,1.56,3.06,1.59,3.85,0" style="fill:none;stroke:#231f20;stroke-miterlimit:10"/><path d="M356.25,12.78c-6.89,0-12.74,5.24-14.92,12.56l26.61-6.41A14.78,14.78,0,0,0,356.25,12.78Z" style="fill:#231f20"/><path d="M341.33,25.35a22.11,22.11,0,0,0-.91,6.3c0,10.42,10.38,18.86,15.83,18.86,5.05,0,15.83-8.45,15.83-18.86a20.92,20.92,0,0,0-4.13-12.71Z" style="fill:#873700;opacity:0.6900000000000001"/><path d="M362,42.85a17.2,17.2,0,0,0-3-1.3c-.91-.26-1.69.62-2.74.61-.54,0-1.76-.82-2.46-.59-1.62.54-3.24,1.12-3.24,1.12C351.79,43.45,357.49,44.39,362,42.85Z" style="fill:#d130be;opacity:0.97"/><path d="M350.54,42.69c.68,2.84,3.57,5,5.71,5,2.37,0,5-2.29,5.7-4.8C355.88,49.13,350.54,42.78,350.54,42.69Z" style="fill:#d130be;opacity:0.97"/><path d="M356.23,45c1.75,0,4.3-.73,5.22-2A19.26,19.26,0,0,1,351,42.9C351.6,43.8,353.81,44.92,356.23,45Z" style="fill:#fff"/><path d="M361.45,43c-.93,1.23-3.47,2-5.22,2-2.42,0-4.63-1.16-5.22-2.05a3,3,0,0,1-.47-.21c0,.09,5.34,6.44,11.41.16Z" style="fill:#231f20"/><circle cx="349.22" cy="31.91" r="2.24" style="fill:#231f20"/><path d="M347,29.9c0,.54.3,1,.66,1" style="fill:none;stroke:#231f20;stroke-miterlimit:10"/><path d="M347.77,29.41c0,.54.3,1,.66,1" style="fill:none;stroke:#231f20;stroke-miterlimit:10"/><path d="M348.5,29.15c-.07.54.17,1,.54,1.06" style="fill:none;stroke:#231f20;stroke-miterlimit:10"/><circle cx="362.63" cy="31.91" r="2.24" style="fill:#231f20"/><path d="M364.87,29.9c0,.54-.3,1-.66,1" style="fill:none;stroke:#231f20;stroke-miterlimit:10"/><path d="M364.08,29.41c0,.54-.3,1-.66,1" style="fill:none;stroke:#231f20;stroke-miterlimit:10"/><path d="M363.35,29.15c.07.54-.17,1-.54,1.06" style="fill:none;stroke:#231f20;stroke-miterlimit:10"/><path d="M254,11.17l-26.61,6.41a22.11,22.11,0,0,0-.91,6.3c0,10.42,10.38,18.86,15.83,18.86,5.05,0,15.83-8.45,15.83-18.86A20.92,20.92,0,0,0,254,11.17Z" style="fill:#c47b49;opacity:0.6900000000000001"/><path d="M242.35,1.17c-6.89,0-12.74,6.85-14.92,16.4L254,11.17C251.15,6.23,247,1.17,242.35,1.17Z" style="fill:#231f20"/><path d="M242.35,1.17C231.13,1.17,222,15,222,32s9.1,30.81,20.31,30.81S262.66,49,262.66,32,253.57,1.17,242.35,1.17Zm0,41.57c-5.44,0-15.83-8.45-15.83-18.86a22.11,22.11,0,0,1,.91-6.3L254,11.17a20.92,20.92,0,0,1,4.13,12.71C258.18,34.29,247.4,42.74,242.35,42.74Z" style="fill:#231f20"/><path d="M248.06,35.07a17.2,17.2,0,0,0-3-1.3c-.91-.26-1.69.62-2.74.61-.54,0-1.76-.82-2.46-.59-1.62.54-3.24,1.12-3.24,1.12C237.89,35.68,243.6,36.62,248.06,35.07Z" style="fill:#d34f35;opacity:0.97"/><path d="M236.64,34.92c.68,2.84,3.57,5,5.71,5,2.37,0,5-2.29,5.7-4.8C242,41.36,236.64,35,236.64,34.92Z" style="fill:#d34f35;opacity:0.97"/><path d="M242.34,37.18c1.75,0,4.3-.73,5.22-2a19.26,19.26,0,0,1-10.44-.09C237.7,36,239.92,37.15,242.34,37.18Z" style="fill:#fff"/><path d="M247.56,35.23c-.93,1.23-3.47,2-5.22,2-2.42,0-4.63-1.16-5.22-2.05a3,3,0,0,1-.47-.21c0,.09,5.34,6.44,11.41.16Z" style="fill:#231f20"/><path d="M264.31,33.72" style="fill:none;stroke:#231f20;stroke-miterlimit:10"/><path d="M249.91,23a4.5,4.5,0,0,0,3.4-2.1s-2.14-.2-3.4-.2-2.29.51-2.29,1.15" style="fill:none;stroke:#231f20;stroke-miterlimit:10"/><circle cx="250.11" cy="21.67" r="0.95" style="fill:#231f20"/><path d="M234.35,22.82a4.5,4.5,0,0,1-3.4-2.1s2.14-.2,3.4-.2,2.29.51,2.29,1.15" style="fill:none;stroke:#231f20;stroke-miterlimit:10"/><circle cx="234.16" cy="21.46" r="0.95" style="fill:#231f20"/><path d="M238.63,6a5.5,5.5,0,1,1-11,0c0-1.39-2.47-3.87-1.62-4.83,0,0,5.47-.67,7.12-.67A5.5,5.5,0,0,1,238.63,6Z" style="fill:#3a2516;stroke:#bc6619;stroke-miterlimit:10;opacity:0.9"/><path d="M255,6a5.5,5.5,0,1,1-5.5-5.5h6.94C257.89,1.49,255,4.11,255,6Z" style="fill:#3a2516;stroke:#bc6619;stroke-miterlimit:10;opacity:0.9"/><path d="M238.63,6H244" style="fill:none;stroke:#bc6619;stroke-miterlimit:10"/><path d="M31.65,37.32c0,10.42-10.77,18.86-15.83,18.86C10.38,56.18,0,47.74,0,37.32S7.09,18.46,15.83,18.46,31.65,26.9,31.65,37.32Z" style="fill:#682f09;opacity:0.89"/><path d="M27.7,24.95C30.4,28.79,35.6,35.27,30,35.27S1.8,33.36,1.8,28.67,7.74,18.54,13.29,18.54,24.61,20.54,27.7,24.95Z" style="fill:#231f20"/><circle cx="23.01" cy="18.16" r="11.05" style="fill:#231f20"/><path d="M29.77,25.38c-2.56-5.57-8.38-8.68-16.47-8.21" style="fill:none;stroke:#84082b;stroke-linecap:square;stroke-miterlimit:10;stroke-width:5px"/><path d="M22.67,48.83c-.92,1.59-4.18,3.56-7.16,3.56-2.68,0-6.19-2.08-7.17-3.72a9,9,0,0,0,4.07-1.12c.79-.47,2.42.58,3.09.59,1.33,0,2.49-1.28,3.44-.61A10,10,0,0,0,22.67,48.83Z" style="fill:#7a150a;opacity:0.97"/><path d="M23.61,38.57a4.5,4.5,0,0,0,3.4-2.1s-2.14-.2-3.4-.2-2.29.51-2.29,1.15" style="fill:none;stroke:#231f20;stroke-miterlimit:10"/><circle cx="23.8" cy="37.22" r="0.95" style="fill:#231f20"/><path d="M8,38.37a4.5,4.5,0,0,1-3.4-2.1s2.14-.2,3.4-.2,2.29.51,2.29,1.15" style="fill:none;stroke:#231f20;stroke-miterlimit:10"/><circle cx="7.85" cy="37.01" r="0.95" style="fill:#231f20"/><path d="M89.53,88.12c0-.16,0-.33,0-.49A15.08,15.08,0,0,0,89.45,86c0-.09-.06-.17-.09-.25C89.45,86.52,89.51,87.31,89.53,88.12Z" style="fill:#a8724e;opacity:0.89"/><path d="M58,84.37c0-.21.07-.43.11-.64a15.76,15.76,0,0,0-.5,3.9c0,.15,0,.3,0,.45,0-.16,0-.32,0-.49A15.57,15.57,0,0,1,58,84.37Z" style="fill:#a8724e;opacity:0.89"/><path d="M73.58,70.65h0c-7.45,0-13.71,6.14-15.48,13.08,0,.21-.08.43-.11.64C59.51,77.18,65.91,70.66,73.58,70.65Z" style="fill:#a8724e"/><path d="M73.58,70.65h0c-7.45,0-13.71,6.14-15.48,13.08,0,.21-.08.43-.11.64C59.51,77.18,65.91,70.66,73.58,70.65Z" style="fill:#a8724e;opacity:0.89"/><path d="M71.92,107.76v-4.09h3.36v4.15c6.41-1.68,13.94-12.07,14.25-19.7,0-.8-.08-1.6-.17-2.37a4.23,4.23,0,0,0-4.13-2.48c-.18,0-.22-2.31-.22-5v.28c-3.68-2.78-19.29-2.44-22.65.79,0,2.68-.14,4.84-.32,4.84-2.44,0-4.41,1.54-4.41,3.43v0c0,.16,0,.32,0,.49C57.93,95.63,66.28,105.9,71.92,107.76Zm8.81-23.28C82,84.49,83,85,83,85.59s-1,1.11-2.24,1.11-2.24-.5-2.24-1.11S79.49,84.49,80.73,84.49ZM78.57,96.67c0,1.12-1.37,2.58-3.29,3.16a5.8,5.8,0,0,1-3.22.06c-2-.54-3.5-2.06-3.5-3.22a13.19,13.19,0,0,1,10,0ZM65.09,85.59c0-.61,1-1.11,2.24-1.11s2.24.5,2.24,1.11-1,1.11-2.24,1.11S65.09,86.2,65.09,85.59Z" style="fill:#a8724e"/><path d="M71.92,107.76v-4.09h3.36v4.15c6.41-1.68,13.94-12.07,14.25-19.7,0-.8-.08-1.6-.17-2.37a4.23,4.23,0,0,0-4.13-2.48c-.18,0-.22-2.31-.22-5v.28c-3.68-2.78-19.29-2.44-22.65.79,0,2.68-.14,4.84-.32,4.84-2.44,0-4.41,1.54-4.41,3.43v0c0,.16,0,.32,0,.49C57.93,95.63,66.28,105.9,71.92,107.76Zm8.81-23.28C82,84.49,83,85,83,85.59s-1,1.11-2.24,1.11-2.24-.5-2.24-1.11S79.49,84.49,80.73,84.49ZM78.57,96.67c0,1.12-1.37,2.58-3.29,3.16a5.8,5.8,0,0,1-3.22.06c-2-.54-3.5-2.06-3.5-3.22a13.19,13.19,0,0,1,10,0ZM65.09,85.59c0-.61,1-1.11,2.24-1.11s2.24.5,2.24,1.11-1,1.11-2.24,1.11S65.09,86.2,65.09,85.59Z" style="fill:#a8724e;opacity:0.89"/><path d="M89.45,86c0,.09,0,.18.06.27a16.33,16.33,0,0,0-.58-3.05c0,.18.08.36.12.55A16.24,16.24,0,0,1,89.45,86Z" style="fill:#231f20;opacity:0.89"/><path d="M73.6,70.65h0c7.45,0,13.71,6.17,15.47,13.11,0-.18-.08-.37-.12-.55C87,76.49,80.86,70.65,73.6,70.65Z" style="fill:#a8724e"/><path d="M73.6,70.65h0c7.45,0,13.71,6.17,15.47,13.11,0-.18-.08-.37-.12-.55C87,76.49,80.86,70.65,73.6,70.65Z" style="fill:#231f20;opacity:0.89"/><path d="M89.36,85.74c0,.08.07.16.09.25a16.24,16.24,0,0,0-.4-2.23Q89.24,84.74,89.36,85.74Z" style="fill:#a55b29;opacity:0.89"/><path d="M89.36,85.74c0,.08.07.16.09.25a16.24,16.24,0,0,0-.4-2.23Q89.24,84.74,89.36,85.74Z" style="fill:#231f20;opacity:0.89"/><path d="M57.62,87.6A26.26,26.26,0,0,1,58,84.37,15.57,15.57,0,0,0,57.62,87.6Z" style="fill:#a55b29;opacity:0.89"/><path d="M57.62,87.6A26.26,26.26,0,0,1,58,84.37,15.57,15.57,0,0,0,57.62,87.6Z" style="fill:#231f20;opacity:0.89"/><path d="M73.58,70.65c-7.67,0-14.07,6.53-15.61,13.72a26.26,26.26,0,0,0-.35,3.22v0c0-1.9,2-3.43,4.41-3.43.18,0,.32-2.17.32-4.84,3.36-3.23,19-3.56,22.65-.79v-.28c0,2.68,0,5,.22,5a4.23,4.23,0,0,1,4.13,2.48q-.12-1-.31-2C87.29,76.82,81,70.66,73.58,70.65Z" style="fill:#a8724e"/><path d="M73.58,70.65c-7.67,0-14.07,6.53-15.61,13.72a26.26,26.26,0,0,0-.35,3.22v0c0-1.9,2-3.43,4.41-3.43.18,0,.32-2.17.32-4.84,3.36-3.23,19-3.56,22.65-.79v-.28c0,2.68,0,5,.22,5a4.23,4.23,0,0,1,4.13,2.48q-.12-1-.31-2C87.29,76.82,81,70.66,73.58,70.65Z" style="fill:#a55b29;opacity:0.89"/><path d="M73.58,70.65c-7.67,0-14.07,6.53-15.61,13.72a26.26,26.26,0,0,0-.35,3.22v0c0-1.9,2-3.43,4.41-3.43.18,0,.32-2.17.32-4.84,3.36-3.23,19-3.56,22.65-.79v-.28c0,2.68,0,5,.22,5a4.23,4.23,0,0,1,4.13,2.48q-.12-1-.31-2C87.29,76.82,81,70.66,73.58,70.65Z" style="fill:#231f20"/><path d="M71.92,103.67v4.09a5.31,5.31,0,0,0,1.65.3,6.79,6.79,0,0,0,1.71-.24v-4.15Z" style="fill:#231f20"/><ellipse cx="67.32" cy="85.59" rx="2.24" ry="1.11" style="fill:#231f20"/><ellipse cx="80.73" cy="85.59" rx="2.24" ry="1.11" style="fill:#231f20"/><path d="M68.9,97.24c.94-.42,2.52.15,4.66.14,1.77,0,3.29-.62,4.56-.15a1.07,1.07,0,0,0,.45-.56,13.19,13.19,0,0,0-10,0C68.73,96.91,68.78,97.05,68.9,97.24Z" style="fill:#fff;stroke:#231f20;stroke-miterlimit:10;stroke-width:0.25px"/><path d="M72.06,99.89a5.8,5.8,0,0,0,3.22-.06A2,2,0,0,0,72.06,99.89Z" style="fill:#a8724e"/><path d="M72.06,99.89a5.8,5.8,0,0,0,3.22-.06A2,2,0,0,0,72.06,99.89Z" style="fill:#a8724e;opacity:0.89"/><path d="M72.06,99.89a5.8,5.8,0,0,0,3.22-.06A2,2,0,0,0,72.06,99.89Z" style="fill:#d63060;opacity:0.48"/><path d="M78.13,97.23c-1.27-.47-2.79.14-4.56.15-2.15,0-3.72-.56-4.66-.14-.12-.18-.17-.33-.34-.57,0,1.16,1.47,2.69,3.5,3.22a2,2,0,0,1,3.22-.06c1.92-.58,3.29-2,3.29-3.16A1.07,1.07,0,0,1,78.13,97.23Z" style="fill:#231f20"/><path d="M73.57,70.65h0c7.26,0,13.39,5.84,15.33,12.56-1.91-8.64-8.06-15-15.36-15S59.86,74.83,58.09,83.73C59.86,76.8,66.12,70.65,73.57,70.65Z" style="fill:#231f20"/><path d="M84.23,66.44c2.8-1.94,3.69-9.58-.47-9.58s-14.2,9.45-14.2,12.86,8.8,5.21,10.46,1.39C81.17,68.48,82.44,67.68,84.23,66.44Z" style="fill:#231f20"/><path d="M87.61,65.49q.82,0,1.66,0" style="fill:none;stroke:#a83604;stroke-linecap:round;stroke-miterlimit:10;stroke-width:7px"/><path d="M76.66,71.07c0-2.86,4.76-5.22,10.95-5.58" style="fill:none;stroke:#231f20;stroke-linecap:round;stroke-miterlimit:10;stroke-width:7px"/><path d="M87.19,61.54q.89-.34,1.84-.63" style="fill:none;stroke:#a83604;stroke-linecap:round;stroke-miterlimit:10;stroke-width:7px"/><path d="M78.6,70c-.82-2.69,2.92-6.27,8.59-8.43" style="fill:none;stroke:#231f20;stroke-linecap:round;stroke-miterlimit:10;stroke-width:7px"/><path d="M72.94,57.4c4.75,5.19.77,13.26-2.21,13.26" style="fill:none;stroke:#231f20;stroke-linecap:round;stroke-miterlimit:10;stroke-width:7px"/><path d="M71.26,55.95a9.73,9.73,0,0,1,1.68,1.45" style="fill:none;stroke:#a83604;stroke-linecap:round;stroke-miterlimit:10;stroke-width:7px"/><path d="M423.86,69.35c-.19,0-.25-2.52-.25-5.44v.31c-4-3-21-2.66-24.7.86,0,2.92-.16,5.28-.35,5.28-2.66,0-4.81,1.68-4.81,3.75,0-.24,0-.54,0-.89,0,.3,0,.6,0,.89,0,9.1,10.62,22.11,17.54,22.11,7.69,0,17.31-13,17.31-22.11a16.45,16.45,0,0,0-.1-1.78C428,70.62,426.18,69.35,423.86,69.35Z" style="fill:#843d15;opacity:0.86"/><ellipse cx="404.33" cy="71.88" rx="2.44" ry="1.21" style="fill:#231f20"/><ellipse cx="418.95" cy="71.88" rx="2.44" ry="1.21" style="fill:#231f20"/><path d="M398.56,70.36c.19,0,.35-2.36.35-5.28,3.66-3.52,20.69-3.89,24.7-.86v-.31c0,2.92.05,5.44.25,5.44,2.32,0,4.17,1.28,4.61,3-.93-8.51-8.33-16.73-17.33-16.73-9.31,0-16.91,8.8-17.4,17.62,0,.35,0,.65,0,.89C393.75,72,395.9,70.36,398.56,70.36Z" style="fill:#422205"/><path d="M435.31,94.29" style="fill:none;stroke:#e5b233;stroke-miterlimit:10;opacity:0.63"/><path d="M408.86,80.09a5.81,5.81,0,0,0,2.28.81,5,5,0,0,0,2.53-.81" style="fill:none;stroke:#231f20;stroke-miterlimit:10;stroke-width:0.5px"/><circle cx="404" cy="72.85" r="4.89" style="fill:none;stroke:#afaba1;stroke-miterlimit:10;opacity:0.9"/><circle cx="418.53" cy="72.85" r="4.89" style="fill:none;stroke:#afaba1;stroke-miterlimit:10;opacity:0.9"/><path d="M408.88,72.85h4.76" style="fill:none;stroke:#afaba1;stroke-miterlimit:10"/><path d="M421.73,95.8c0,7.56-6.18,12.61-10.63,12.61-3,0-10.63-5-10.63-12.61s4.76-13.7,10.63-13.7S421.73,88.24,421.73,95.8Z" style="fill:#422205"/><path d="M411.26,86.63c1.93,0,3.59-.67,5-.16a1.16,1.16,0,0,0,.49-.61,14.39,14.39,0,0,0-10.92,0c.19.26.24.42.38.62C407.2,86,408.92,86.64,411.26,86.63Z" style="fill:#fff;stroke:#231f20;stroke-miterlimit:10;stroke-width:0.25px"/><path d="M409.62,89.37a6.32,6.32,0,0,0,3.51-.07A2.18,2.18,0,0,0,409.62,89.37Z" style="fill:#d63060;opacity:0.48"/><path d="M416.73,85.86a1.16,1.16,0,0,1-.49.61c-1.38-.51-3,.15-5,.16-2.34,0-4.06-.61-5.09-.16-.13-.2-.19-.36-.38-.62,0,1.27,1.61,2.93,3.82,3.52a2.18,2.18,0,0,1,3.51-.07C415.23,88.67,416.73,87.08,416.73,85.86Z" style="fill:#231f20"/></g></g></svg>