<?xml version="1.0" encoding="utf-8"?>
<!-- Generator: Adobe Illustrator 17.0.0, SVG Export Plug-In . SVG Version: 6.00 Build 0)  -->
<!DOCTYPE svg PUBLIC "-//W3C//DTD SVG 1.1//EN" "http://www.w3.org/Graphics/SVG/1.1/DTD/svg11.dtd">
<svg version="1.1" id="Layer_1" xmlns="http://www.w3.org/2000/svg" xmlns:xlink="http://www.w3.org/1999/xlink" x="0px" y="0px"
	 width="72.5px" height="76.25px" viewBox="0 0 72.5 76.25" enable-background="new 0 0 72.5 76.25" xml:space="preserve">
<g id="Layer_6">
	<g>
		<path fill="none" stroke="#FF676A" stroke-miterlimit="10" d="M67.557,41.917c5.833,15.333-9.333,32.333-20.5,32.333
			c-15.522,0-28.667-20.833-38.333-32.5c-2.872-3.466-6.521-7.5-5.5-9.5c3.697-7.244,21.262,19.948,22.333,16.5
			C26.922,44.357,2.38,24.371,3.724,20.083c3.5-11.167,24.738,19.849,27.833,17.75c3.225-2.186-24.97-24.192-23.388-29.028
			C12.224-3.583,34.313,31.814,38.224,30.25c4.167-1.667-20.113-20.515-19.5-24.667c2.167-14.667,30.272,28.318,35.167,25.5
			c3.23-1.86,0.194-13.381,1.667-19.5c1.035-4.3,6.603-4.282,8.167-3.5C67.724,10.083,62.6,28.886,67.557,41.917z"/>
		<path fill="none" stroke="#FF676A" stroke-miterlimit="10" d="M52.89,58.417c-2.833-11.333,0.969-20.03,2.167-20.03"/>
	</g>
</g>
</svg>
